<svg width="42" height="41" viewBox="0 0 42 41" fill="none" xmlns="http://www.w3.org/2000/svg">
<g clip-path="url(#clip0_26_36)">
<mask id="mask0_26_36" style="mask-type:luminance" maskUnits="userSpaceOnUse" x="0" y="0" width="42" height="41">
<path d="M0 0H42V40.4444H0V0Z" fill="white"/>
</mask>
<g mask="url(#mask0_26_36)">
<path fill-rule="evenodd" clip-rule="evenodd" d="M0 0H42V40.4444H0V0ZM32.1073 33.9059C30.1595 33.9059 29.0587 32.9285 28.2135 31.5972L25.0057 33.3919C26.1642 35.5962 28.532 37.278 32.1983 37.278C35.9468 37.278 38.738 35.4041 38.738 31.9814C38.738 28.8082 36.8445 27.3977 33.4915 26.0108L32.5045 25.6047C30.8105 24.8969 30.0773 24.4369 30.0773 23.296C30.0773 22.3742 30.8123 21.6681 31.9673 21.6681C33.0995 21.6681 33.8293 22.1282 34.5065 23.296L37.5795 21.3968C36.2793 19.1943 34.4768 18.3534 31.9673 18.3534C28.4428 18.3534 26.187 20.5239 26.187 23.3752C26.187 26.4675 28.077 27.9319 30.926 29.0998L31.913 29.5076C33.7138 30.2659 34.7865 30.7277 34.7865 32.0303C34.7865 33.1189 33.7418 33.9059 32.1073 33.9059ZM16.8123 33.8806C15.456 33.8806 14.8907 32.9875 14.2712 31.9258L11.0582 33.7998C11.9892 35.6973 13.8197 37.2712 16.9785 37.2712C20.4767 37.2712 22.8725 35.4799 22.8725 31.545V18.5691H18.9262V31.4944C18.9262 33.3936 18.1072 33.8806 16.8105 33.8806" fill="#808080"/>
</g>
</g>
<defs>
<clipPath id="clip0_26_36">
<rect width="42" height="40.4444" fill="white"/>
</clipPath>
</defs>
</svg>
