<svg width="42" height="39" viewBox="0 0 42 39" fill="none" xmlns="http://www.w3.org/2000/svg">
<mask id="mask0_26_27" style="mask-type:luminance" maskUnits="userSpaceOnUse" x="0" y="0" width="41" height="39">
<path d="M0 0H40.5V39H0V0Z" fill="white"/>
</mask>
<g mask="url(#mask0_26_27)">
<path d="M39.5365 5.70228e-06H0.961877C0.83542 5.51488e-06 0.710203 0.0240174 0.593393 0.0706675C0.476583 0.117317 0.370471 0.18569 0.281131 0.271872C0.191791 0.358055 0.120974 0.460356 0.072735 0.572921C0.0244956 0.685487 -0.000220372 0.806108 1.483e-06 0.927881V38.0738C-0.000220817 38.1957 0.0245507 38.3164 0.0728956 38.4291C0.12124 38.5418 0.192207 38.6442 0.281727 38.7304C0.371246 38.8166 0.477557 38.8849 0.594562 38.9315C0.711567 38.978 0.836965 39.0019 0.963564 39.0017H39.5381C39.6647 39.0019 39.7901 38.978 39.9071 38.9315C40.0242 38.8849 40.1305 38.8166 40.22 38.7304C40.3095 38.6442 40.3805 38.5418 40.4288 38.4291C40.4772 38.3164 40.5019 38.1957 40.5017 38.0738V0.926256C40.5017 0.804345 40.4767 0.683633 40.4282 0.571043C40.3796 0.458453 40.3085 0.356199 40.2188 0.270146C40.1291 0.184094 40.0227 0.115934 39.9056 0.0695773C39.7885 0.0232204 39.6631 -0.000422055 39.5365 5.70228e-06ZM24.1076 20.8423H19.2864V35.2853H15.4288V20.8423H10.6076V17.6426H24.1076V20.8423ZM25.1876 34.4598V30.6004C25.1876 30.6004 27.378 32.1896 30.0055 32.1896C32.6329 32.1896 32.5316 30.5354 32.5316 30.3079C32.5316 27.9078 25.0864 27.9078 25.0864 22.5875C25.0864 15.353 35.9353 18.2081 35.9353 18.2081L35.8003 21.6466C35.8003 21.6466 33.9812 20.4783 31.9258 20.4783C29.8705 20.4783 29.1296 21.4208 29.1296 22.425C29.1296 25.0201 36.6424 24.7618 36.6424 29.9845C36.6424 38.0283 25.1876 34.4614 25.1876 34.4614" fill="#808080"/>
</g>
</svg>
