<svg width="60" height="52" viewBox="0 0 60 52" fill="none" xmlns="http://www.w3.org/2000/svg">
<path fill-rule="evenodd" clip-rule="evenodd" d="M30.4854 40.4622C31.3254 41.0595 32.3103 41.3142 33.3734 41.3613C33.8131 41.3811 34.2654 41.3625 34.6981 41.2948C35.3843 41.1876 36.0687 41.053 36.7362 40.8801C38.0956 40.5274 39.2703 39.9181 40.1473 38.9338C40.647 38.3728 41.0572 37.7662 41.3206 37.0956C41.5381 36.5422 41.7425 35.9832 41.9051 35.4169C42.0336 34.9708 42.0973 34.5101 42.1751 34.0543C42.2272 33.7528 42.2586 33.4481 42.2909 33.1438C42.3434 32.6501 42.3983 32.1572 42.4362 31.6622C42.4629 31.318 42.462 30.9722 42.4775 30.6276C42.4826 30.5224 42.5023 30.418 42.514 30.3137C42.5239 30.2165 42.5811 30.1831 42.6964 30.1847C43.1014 30.1899 43.5073 30.1988 43.9118 30.1831C44.3651 30.1657 44.8217 30.1488 45.2679 30.0847C45.903 29.9935 46.533 29.8778 47.1561 29.7381C47.8911 29.5725 48.5656 29.2762 49.2153 28.9393C49.9709 28.5463 50.6609 28.0857 51.2192 27.492C51.7062 26.9753 51.9369 26.3764 51.8192 25.7231C51.6486 24.7739 50.7209 24.152 49.6423 24.1097C49.2514 24.0944 48.8548 24.1298 48.4658 24.1722C47.9947 24.2238 47.5306 24.3148 47.0609 24.3749C46.7365 24.4168 46.4079 24.4354 46.0845 24.4644L46.0756 24.4281C46.6803 23.4459 47.3103 22.475 47.8822 21.4795C48.3214 20.7153 48.6964 19.9241 49.084 19.1382C49.7262 17.8372 50.2386 16.4963 50.6633 15.1328C51.0697 13.8278 51.4175 12.5087 51.5276 11.1544C51.5717 10.614 51.6022 10.0711 51.5979 9.5298C51.5951 9.09775 51.5408 8.66529 51.4906 8.23484C51.4334 7.74152 51.26 7.274 51.02 6.82421C50.704 6.23094 50.2133 5.74447 49.6972 5.28259C49.2842 4.9126 48.8295 4.57566 48.379 4.23872C47.7364 3.7583 47.0136 3.3742 46.2636 3.03364C45.4134 2.64532 44.5128 2.34498 43.5804 2.13889C43.0123 2.01582 42.4406 1.90548 41.8657 1.808C41.6614 1.77253 41.4551 1.68225 41.2493 1.68225H37.3737C37.2336 1.68225 37.0948 1.76125 36.9537 1.77455C36.0262 1.86153 35.1103 2.02415 34.2186 2.26021C33.8857 2.34847 33.582 2.29688 33.2656 2.27149C33.0228 2.25215 32.7842 2.19854 32.5414 2.18806C31.6175 2.14857 30.6926 2.09133 29.7682 2.0998C28.8832 2.10786 28.0071 2.23361 27.1507 2.44238C26.434 2.61811 25.7323 2.83131 25.0892 3.15576C24.8145 3.2944 24.596 3.26821 24.3115 3.19808C23.3559 2.9575 22.392 2.74191 21.4212 2.5516C20.816 2.43513 20.1931 2.37628 19.5748 2.32147C18.9814 2.26841 18.3858 2.23654 17.7893 2.22595C17.2071 2.21507 16.6212 2.21547 16.0414 2.2598C15.1184 2.33034 14.2132 2.49155 13.3329 2.75191C12.3627 3.03752 11.456 3.46287 10.6517 4.00979C9.83135 4.568 9.17322 5.24873 8.64494 6.027C8.0876 6.84799 7.70463 7.72701 7.46744 8.64957C7.33853 9.14974 7.38588 9.66401 7.29728 10.1718C7.2701 10.329 7.32494 10.487 7.32494 10.645V12.8557C7.32494 13.0024 7.27478 13.1495 7.29635 13.297C7.34931 13.6513 7.33103 14.0084 7.40088 14.3602C7.51056 14.9172 7.60947 15.4722 7.7426 16.0252C7.92869 16.7978 8.10635 17.5696 8.3126 18.3386C8.46197 18.8986 8.62572 19.4551 8.80385 20.0084C9.07572 20.854 9.34103 21.7007 9.649 22.5362C9.93541 23.3129 10.2617 24.0783 10.5874 24.844C11.0341 25.9028 11.5813 26.9282 12.2234 27.9099C12.7835 28.7608 13.4224 29.5576 14.2803 30.2125C14.846 30.6446 15.4746 30.9763 16.2064 31.1423C16.7779 31.2733 17.3771 31.2876 17.9562 31.1842C18.6276 31.067 19.2548 30.8088 19.782 30.4326C19.8439 30.3894 19.9109 30.356 19.9845 30.4358C20.2629 30.7389 20.6351 30.9412 21.0246 31.1157C22.0756 31.5873 23.2207 31.7287 24.3837 31.786C24.6659 31.7997 24.95 31.765 25.2336 31.7586C25.7871 31.7453 26.3243 31.6526 26.8526 31.5212C27.1301 31.4522 27.4006 31.3644 27.6828 31.283C27.6973 31.5413 27.7161 31.7896 27.7254 32.0383L27.7643 33.3937C27.7718 33.6 27.7812 33.8064 27.8032 34.0119C27.8604 34.5415 27.9162 35.0711 27.9898 35.5991C28.0404 35.963 28.0939 36.3294 28.1932 36.6849C28.3932 37.4012 28.6665 38.1009 29.0098 38.7758C29.3382 39.4311 29.8442 40.0093 30.4854 40.4622ZM28.8021 33.704C28.7689 33.0676 28.744 32.4309 28.7276 31.794C28.7079 31.0113 28.7014 30.2282 28.6887 29.4455L28.6864 29.4157C28.2237 29.6547 27.7676 29.9159 27.2853 30.1315C26.7195 30.3842 26.1054 30.5305 25.4693 30.572C24.971 30.6043 24.4653 30.6337 23.9693 30.5998C23.1556 30.543 22.3418 30.4338 21.6134 30.0888C21.3181 29.9489 21.0096 29.7784 20.8057 29.5555C20.3178 29.0199 20.5517 28.3432 21.2876 28.0176C21.7962 27.7919 22.3512 27.6979 22.9025 27.5883C23.3823 27.4947 23.8571 27.3831 24.3256 27.2538C24.7878 27.1236 25.0793 26.8012 25.3676 26.4848L25.8242 25.9802L25.2753 25.931C24.7306 25.8875 24.2107 25.7581 23.7139 25.5687C23.2892 25.4071 23.2826 25.3893 22.9704 25.6803C22.4501 26.166 21.9439 26.6637 21.4334 27.1579C21.0579 27.5214 20.6853 27.887 20.3107 28.2517C19.9414 28.6124 19.5945 28.9933 19.1956 29.3286C18.604 29.8268 17.8906 30.1262 17.0393 30.0924C16.4932 30.0706 15.9935 29.9062 15.5435 29.6374C14.6159 29.082 13.991 28.3041 13.4215 27.488C12.6926 26.4417 12.1324 25.3273 11.6538 24.1826C11.3224 23.3911 10.9892 22.5991 10.7004 21.7963C10.3859 20.9237 10.1098 20.041 9.83838 19.1576C9.63307 18.4914 9.45119 17.8195 9.27775 17.1464C9.0781 16.3813 8.89339 15.6134 8.72369 14.8431C8.61072 14.3227 8.54557 13.7947 8.45416 13.2712C8.33088 12.5647 8.30838 11.8525 8.35338 11.1436C8.39322 10.5048 8.49963 9.86795 8.60557 9.23357C8.75228 8.35575 9.08885 7.52751 9.5726 6.74521C9.87094 6.26847 10.2367 5.82526 10.6615 5.42567C11.3599 4.76106 12.2051 4.28104 13.1454 3.92032C13.8021 3.66842 14.4964 3.51728 15.2037 3.39839C16.2537 3.22266 17.3131 3.22992 18.3724 3.24846C18.8356 3.25692 19.2973 3.32906 19.7599 3.36896C20.7565 3.45401 21.7329 3.63457 22.6971 3.85664C23.4003 4.01866 24.0889 4.22905 24.7854 4.41122C24.8548 4.42936 24.9575 4.42775 25.0151 4.39591C25.9596 3.86551 26.9914 3.51567 28.0896 3.31536C28.5064 3.23959 28.9367 3.20614 29.3628 3.18276C29.8803 3.15495 30.4029 3.12835 30.9195 3.15455C31.5406 3.18518 32.1598 3.26377 32.7771 3.33632C33.0771 3.37179 33.3697 3.46086 33.6697 3.48504C33.814 3.49673 33.9664 3.40685 34.1182 3.37622C34.8936 3.22186 35.6656 3.05056 36.4479 2.92925C37.0301 2.83897 37.6254 2.79625 38.217 2.76723C38.8779 2.73458 39.5426 2.7108 40.2026 2.73821C41.037 2.77287 41.8653 2.87484 42.6828 3.03847C43.6962 3.2412 44.6675 3.53542 45.5914 3.9441C46.2818 4.25001 46.9376 4.60387 47.5287 5.03915C47.9159 5.32491 48.3125 5.60663 48.6617 5.92503C49.0929 6.31759 49.5326 6.70975 49.8036 7.21233C50.0075 7.59159 50.1528 7.98415 50.1931 8.39888C50.2428 8.91517 50.3033 9.43307 50.2981 9.95017C50.2929 10.4443 50.2142 10.938 50.1589 11.4313C50.0318 12.555 49.7483 13.6545 49.4028 14.7395C49.1144 15.6356 48.7878 16.5224 48.4236 17.3979C48.0912 18.2052 47.7073 18.9976 47.3197 19.7871C47.034 20.3717 46.7238 20.9473 46.3897 21.5125C45.755 22.5814 45.095 23.6394 44.3314 24.6469C44.1997 24.8207 44.0745 24.9988 43.9461 25.1765C44.2793 25.3696 44.6567 25.4377 45.0364 25.4732C45.3978 25.5066 45.7662 25.5272 46.1272 25.5038C46.7051 25.4667 47.2812 25.3958 47.8559 25.3269C48.425 25.2584 48.9823 25.1193 49.5673 25.156C50.1504 25.1927 50.5686 25.5739 50.5287 26.0439C50.5034 26.3413 50.3445 26.5964 50.1148 26.8145C49.0297 27.8438 47.6675 28.4677 46.1093 28.7753C45.5173 28.8921 44.907 28.9522 44.3009 29.001C43.7833 29.04 43.2633 29.0505 42.7442 29.0324C42.3636 29.0203 41.9862 28.9453 41.5972 28.897C41.5578 29.2029 41.5208 29.5217 41.4758 29.8393L41.2943 31.0577C41.2395 31.4438 41.1968 31.8315 41.1401 32.2176C41.0848 32.5924 41.0159 32.9652 40.9578 33.3397C40.9039 33.6883 40.864 34.0389 40.8031 34.3872C40.7107 34.9208 40.6222 35.4556 40.5007 35.9852C40.3554 36.618 40.1332 37.2306 39.769 37.8017C39.3256 38.4986 38.697 39.0294 37.8964 39.4223C37.0714 39.8274 36.169 40.0382 35.2554 40.2147C34.6076 40.34 33.9415 40.3602 33.2857 40.309C32.149 40.2207 31.1787 39.8028 30.4451 39.0447C29.7453 38.3212 29.2714 37.4926 29.1021 36.5539C29.0224 36.1073 28.9605 35.6584 28.9165 35.2082C28.8657 34.7075 28.8276 34.206 28.8021 33.704ZM30.08 27.2739C30.087 27.6085 30.0467 27.943 30.0486 28.2775C30.057 29.8346 30.0692 31.3918 30.0851 32.9491C30.0879 33.2034 30.1025 33.4586 30.1236 33.7125C30.1681 34.2445 30.2121 34.7769 30.2721 35.3073C30.3153 35.6841 30.3739 36.0598 30.4428 36.4338C30.5412 36.963 30.8215 37.4345 31.1393 37.8855C31.4131 38.2733 31.7698 38.6021 32.239 38.8294C33.0368 39.2152 33.8951 39.2474 34.7604 39.1055C35.345 39.01 35.9197 38.8556 36.4868 38.6964C37.0449 38.5421 37.5544 38.28 37.9765 37.9303C38.3745 37.599 38.6567 37.1947 38.847 36.7486C39.2159 35.8836 39.3317 34.9724 39.484 34.0688C39.5412 33.7302 39.5909 33.3909 39.6429 33.0519C39.7029 32.6663 39.7618 32.2808 39.8197 31.8952C39.8628 31.6074 39.9012 31.32 39.942 31.0327C40.0006 30.62 40.062 30.2077 40.1178 29.795C40.1604 29.4757 40.1961 29.1553 40.2345 28.8353C40.2832 28.4262 40.3353 28.0184 40.3779 27.6085C40.4098 27.2981 40.3967 26.9817 40.4609 26.6766C40.5786 26.1176 40.8861 25.642 41.4626 25.3341C41.7036 25.206 41.9764 25.1213 42.2436 25.0125L42.1976 24.9525C41.9506 24.6768 41.6975 24.4055 41.4551 24.1266C41.0745 23.6889 40.8008 23.2008 40.5256 22.7104C40.265 22.2452 39.9462 21.8051 39.672 21.3453C39.1934 20.5432 38.7059 19.7432 38.2648 18.9262C37.7103 17.8985 37.2734 16.8353 37.1361 15.6971C37.0775 15.2159 37.0625 14.7346 37.1764 14.2578C37.3578 13.4961 37.82 12.9004 38.5981 12.4917C39.32 12.1129 40.1239 11.9903 40.9475 11.9521C41.4584 11.9283 41.9726 11.9476 42.5028 11.9476L42.4854 11.8706C42.1554 11.2774 41.8475 10.674 41.4861 10.0953C40.977 9.2779 40.3245 8.54115 39.5989 7.85719C39.0633 7.34873 38.4749 6.88331 37.8411 6.46671C37.2139 6.05844 36.5529 5.69369 35.8475 5.39584C35.0093 5.03759 34.1242 4.76697 33.2112 4.58977C32.3276 4.4213 31.4393 4.31812 30.5328 4.30966C29.7603 4.3024 28.9925 4.33303 28.2396 4.48256C27.1034 4.70866 26.0642 5.11089 25.1609 5.7622C24.6605 6.12274 24.2136 6.53478 23.8301 6.98905C23.3768 7.52308 23.0121 8.10103 22.7 8.70599C22.2715 9.53665 21.9776 10.4004 21.776 11.2887C21.6757 11.732 21.597 12.1782 21.5168 12.6243C21.4887 12.7811 21.4868 12.9403 21.47 13.1197L21.8131 12.9661L22.1478 12.8371C23.2807 12.3918 24.454 12.1052 25.715 12.1379C26.2512 12.1516 26.7631 12.2431 27.2403 12.445C28.1543 12.8327 28.6887 13.4917 28.9212 14.3251C29.0815 14.9007 29.1917 15.4875 29.2986 16.0731C29.382 16.5302 29.4678 16.992 29.4771 17.4531C29.4907 18.127 29.4514 18.8025 29.4087 19.476C29.3722 20.0487 29.2344 20.6132 29 21.1502C28.5762 22.1239 28.1037 23.082 27.6626 24.05C27.5168 24.3701 27.4048 24.701 27.2675 25.0528L27.8243 25.0532C27.8918 25.0544 27.9607 25.056 28.0259 25.0693C28.5326 25.1721 28.9728 25.3696 29.3332 25.7049C29.8151 26.1499 30.0673 26.6706 30.08 27.2739ZM20.4017 22.6571C20.1146 22.076 19.9413 21.458 19.8889 20.8282C19.8401 20.2341 19.9221 19.6432 19.9934 19.0516C20.0618 18.4789 20.12 17.9033 20.1396 17.3286C20.1729 16.3827 20.0989 15.4391 20.0464 14.494C20.015 13.9314 20.0909 13.3619 20.149 12.798C20.2015 12.2902 20.2671 11.7812 20.3792 11.2806C20.5662 10.4407 20.8151 9.61283 21.169 8.81038C21.5042 8.04944 21.8904 7.30906 22.4342 6.64204C22.8078 6.18418 23.2306 5.75737 23.637 5.31L23.516 5.27292C22.1928 4.91179 20.8475 4.62886 19.4632 4.50593C18.8093 4.44749 18.1526 4.41364 17.4968 4.37978C17.2953 4.36971 17.0909 4.39308 16.8889 4.40961C16.3887 4.45112 15.882 4.46724 15.3898 4.54785C14.5521 4.68488 13.7482 4.91542 13.0043 5.29065C12.3458 5.62347 11.7685 6.06297 11.3046 6.5848C10.7857 7.16155 10.4356 7.81367 10.1848 8.5085C9.88853 9.32869 9.74697 10.1731 9.709 11.0247C9.67572 11.7715 9.65932 12.5224 9.80932 13.2664C9.92041 13.8197 9.99494 14.3796 10.1178 14.9313C10.2829 15.6836 10.4682 16.4325 10.6737 17.1774C10.9704 18.2431 11.2676 19.3095 11.6196 20.3623C11.9562 21.3702 12.3354 22.3694 12.7479 23.3568C13.0845 24.1625 13.474 24.9533 13.8842 25.7331C14.1514 26.2414 14.4748 26.7307 14.8142 27.2062C15.1746 27.7116 15.5853 28.1913 16.1412 28.558C16.8439 29.0207 17.3871 29.0929 18.1015 28.5846C18.4071 28.3674 18.6654 28.0982 18.9317 27.8422C19.354 27.436 19.7618 27.0176 20.1828 26.6093C20.7185 26.0898 21.2609 25.5755 21.7995 25.0576C21.9134 24.9484 22.0235 24.8356 22.1342 24.7251L21.95 24.5869C21.2855 24.0416 20.7585 23.3848 20.4017 22.6571ZM40.7178 7.17928C41.1585 7.6192 41.5764 8.07562 41.9703 8.5472C42.7258 9.45774 43.3337 10.4524 43.7773 11.5039C43.9742 11.9694 44.1317 12.4393 44.0614 12.9484C44.0126 13.3051 44.0159 13.6666 43.9798 14.0253C43.9493 14.3235 43.894 14.6202 43.8495 14.9176C43.782 15.3658 43.6845 15.8132 43.6554 16.2634C43.6273 16.6922 43.6568 17.1251 43.6883 17.5543C43.7197 17.9908 43.7881 18.4253 43.8345 18.8605C43.887 19.3551 43.9583 19.8484 43.9742 20.3437C43.9873 20.75 43.9451 21.1583 43.9043 21.5645C43.8524 22.0513 43.7149 22.5286 43.4965 22.98C43.3451 23.3 43.1647 23.6095 42.9945 23.9295L43.0629 23.9916L43.167 24.0609L43.2725 23.8997C44.1581 22.7024 44.9446 21.453 45.6261 20.1607C46.0632 19.3267 46.478 18.4841 46.8701 17.6337C47.4811 16.3116 47.9748 14.9516 48.3472 13.5654C48.5159 12.9431 48.6453 12.3112 48.7597 11.6792C48.8492 11.1851 48.9233 10.6853 48.9401 10.1868C48.9575 9.65797 48.9237 9.12515 48.867 8.59798C48.8244 8.19978 48.71 7.79916 48.4203 7.47471C47.9534 6.95358 47.45 6.45543 46.8308 6.06085C46.309 5.72915 45.7887 5.38778 45.2295 5.10888C44.3422 4.66594 43.3817 4.37172 42.3781 4.17101C41.3979 3.97473 40.4061 3.89009 39.4076 3.87196C38.8189 3.86107 38.2273 3.91548 37.64 3.96345C37.1075 4.00617 36.5782 4.07952 36.0425 4.13998C36.6176 4.41807 37.1853 4.66554 37.7197 4.95693C38.8447 5.56955 39.8534 6.30671 40.7178 7.17928ZM26.1021 24.3338C26.4654 23.3343 26.9609 22.3791 27.4404 21.419C27.83 20.6399 28.0423 19.8198 28.1131 18.9766C28.1482 18.5611 28.1389 18.1403 28.115 17.7236C28.0914 17.2599 28.042 16.7975 27.9668 16.3379C27.8661 15.7519 27.7517 15.1655 27.5904 14.5903C27.4156 13.9681 26.975 13.5344 26.2193 13.3744C25.7595 13.2772 25.302 13.2813 24.8365 13.3446C23.7007 13.4981 22.661 13.858 21.6926 14.3852C21.4976 14.4912 21.3898 14.577 21.424 14.8169C21.4953 15.3263 21.5107 15.8438 21.5079 16.3577C21.5042 17.0852 21.4681 17.8126 21.4362 18.5397C21.4259 18.7763 21.386 19.0125 21.356 19.2483C21.311 19.6094 21.2234 19.9701 21.2262 20.3308C21.229 20.7024 21.2731 21.0825 21.3781 21.4424C21.7114 22.5838 22.4164 23.5172 23.5728 24.1762C24.2839 24.5817 25.0704 24.7856 25.9343 24.8247C25.9915 24.6542 26.0445 24.4934 26.1021 24.3338ZM24.7446 14.5444C24.5923 14.2699 24.6795 14.0422 25.032 13.9366C25.1182 13.9112 25.2064 13.883 25.2954 13.8758C25.4187 13.8653 25.5429 13.8729 25.6671 13.8729C26.1148 13.8754 26.5451 13.929 26.914 14.1732C27.1512 14.3304 27.215 14.538 27.0612 14.7524C26.8432 15.0559 26.5118 15.2082 26.104 15.2372C25.4623 15.2828 25.0118 15.0256 24.7446 14.5444ZM42.5454 14.444L42.6912 13.3458C42.7123 13.1991 42.6228 13.1588 42.4793 13.1551C42.0279 13.1446 41.577 13.1305 41.1256 13.1241C40.6175 13.116 40.122 13.1862 39.6514 13.3522C39.1292 13.5372 38.7317 13.833 38.569 14.3219C38.4504 14.6822 38.4129 15.0587 38.4584 15.4311C38.5219 16.0073 38.6737 16.5738 38.9098 17.1158C39.2257 17.8384 39.5557 18.5607 39.9509 19.2531C40.4857 20.1902 41.0904 21.0978 41.6586 22.0208C41.81 22.267 41.9384 22.5245 42.0964 22.8119C42.4155 22.2403 42.5897 21.6168 42.6073 20.9829C42.6228 20.4586 42.5745 19.933 42.5389 19.4087C42.5168 19.0878 42.4639 18.7686 42.4278 18.4486C42.3776 18.0029 42.3007 17.5567 42.2886 17.1097C42.2768 16.6551 42.3143 16.1981 42.3593 15.7438C42.4015 15.3094 42.485 14.8777 42.5454 14.444ZM41.5287 14.0918C41.3609 14.4896 41.0028 14.7145 40.5378 14.7802C40.1047 14.8418 39.725 14.7044 39.4428 14.407C39.2417 14.1954 39.3186 13.9451 39.62 13.8016C39.9659 13.6372 40.3461 13.5956 40.7947 13.5707C40.917 13.5896 41.0998 13.6061 41.2742 13.6484C41.5268 13.7097 41.6206 13.8741 41.5287 14.0918ZM28.1234 26.3453C27.8759 26.1712 27.5478 26.1612 27.3125 26.3522C27.02 26.59 26.7626 26.8616 26.5053 27.1293C26.2085 27.4388 25.9292 27.7604 25.5467 28.0002C24.9893 28.3489 24.3382 28.4931 23.6848 28.6298C23.1654 28.7386 22.6432 28.8398 22.1225 28.9437L22.1159 29.0018C22.2706 29.063 22.4201 29.14 22.5818 29.1839C23.3764 29.4 24.185 29.508 25.025 29.4467C25.6306 29.402 26.2081 29.2883 26.7551 29.0655C27.5084 28.7587 28.0882 28.2723 28.5809 27.7072C28.6634 27.6129 28.7009 27.4735 28.7103 27.3517C28.7436 26.9221 28.49 26.6025 28.1234 26.3453ZM42.6289 26.1591C42.2393 26.2716 41.9225 26.4429 41.8283 26.8052C41.764 27.0503 41.7406 27.3038 41.7157 27.5549C41.7111 27.5992 41.7753 27.6806 41.824 27.6919C42.124 27.76 42.4259 27.8402 42.7325 27.864C43.1098 27.8934 43.4933 27.8841 43.8729 27.868C44.2826 27.8503 44.6951 27.8273 45.0992 27.7693C46.0503 27.6314 46.9714 27.4082 47.7889 26.9439C48.0842 26.7766 48.3758 26.6057 48.6692 26.4356L48.6448 26.3998C48.3322 26.4397 48.0204 26.4884 47.7064 26.517C47.067 26.5759 46.4272 26.638 45.7854 26.6698C45.4756 26.6851 45.1615 26.6339 44.8493 26.6122C44.3253 26.5755 43.8134 26.4755 43.3704 26.2345C43.115 26.0959 42.9012 26.0806 42.6289 26.1591Z" fill="#808080"/>
<path d="M1.3289 41.587C2.00187 41.4927 2.68285 41.4472 3.36468 41.4508C4.41234 41.4508 5.18062 41.6604 5.66812 42.0376C6.11906 42.373 6.38718 42.8864 6.38718 43.5156C6.38718 44.1548 6.16734 44.6578 5.75296 45.0245C5.19234 45.538 4.27828 45.8 3.24234 45.8C2.92546 45.8 2.63297 45.7895 2.38968 45.7371V48.5668H1.3289V41.587ZM2.38968 44.9927C2.62125 45.0451 2.91375 45.0661 3.26718 45.0661C4.5464 45.0661 5.32687 44.5316 5.32687 43.5571C5.32687 42.6245 4.55906 42.1739 3.38906 42.1739C2.92593 42.1739 2.5725 42.2053 2.38968 42.2472V44.9927ZM12.81 45.9882C12.81 47.8639 11.2983 48.6817 9.87234 48.6817C8.27578 48.6817 7.04484 47.6757 7.04484 46.072C7.04484 44.3744 8.33671 43.3789 9.96984 43.3789C11.6644 43.3785 12.81 44.4373 12.81 45.9882ZM8.12999 46.0406C8.12999 47.1514 8.87343 47.9897 9.92156 47.9897C10.9453 47.9897 11.7126 47.1619 11.7126 46.0196C11.7126 45.1604 11.2134 44.0706 9.94546 44.0706C8.67749 44.0706 8.12999 45.0765 8.12999 46.0406ZM14.0161 47.6229C14.333 47.8011 14.8936 47.9897 15.4298 47.9897C16.2098 47.9897 16.5755 47.6544 16.5755 47.2352C16.5755 46.7951 16.2712 46.5541 15.4786 46.3026C14.4183 45.9777 13.9186 45.4747 13.9186 44.867C13.9186 44.0496 14.6864 43.3789 15.9539 43.3789C16.5511 43.3789 17.0756 43.5257 17.4047 43.6933L17.1366 44.364C16.7738 44.1718 16.356 44.0703 15.93 44.0706C15.2962 44.0706 14.9428 44.3849 14.9428 44.7622C14.9428 45.1813 15.2967 45.3699 16.0645 45.6214C17.0883 45.9568 17.6123 46.3969 17.6123 47.1514C17.6123 48.0421 16.808 48.6708 15.4064 48.6708C14.7605 48.6708 14.1633 48.5346 13.7489 48.325L14.0161 47.6229ZM20.2809 42.0372V43.4938H21.8161V44.1959H20.2809V46.9309C20.2809 47.5597 20.4876 47.9159 21.0853 47.9159C21.2948 47.919 21.5039 47.8978 21.7069 47.8531L21.7556 48.5447C21.5489 48.618 21.2194 48.6704 20.8055 48.6704C20.3058 48.6704 19.9031 48.5342 19.6472 48.2827C19.343 48.0102 19.2328 47.5597 19.2328 46.9624V44.1959H18.3187V43.4938H19.2328V42.2782L20.2809 42.0372ZM28.0322 43.4942C28.0073 43.861 27.9834 44.2697 27.9834 44.8879V47.8325C27.9834 48.9957 27.7153 49.7082 27.1425 50.1488C26.5697 50.6098 25.7409 50.7565 24.9975 50.7565C24.2906 50.7565 23.5106 50.6098 23.0348 50.3374L23.303 49.6353C23.693 49.8449 24.3023 50.0335 25.0336 50.0335C26.1305 50.0335 26.9348 49.541 26.9348 48.2626V47.6967H26.9105C26.5814 48.1682 25.9476 48.5455 25.0336 48.5455C23.5711 48.5455 22.523 47.4766 22.523 46.072C22.523 44.3535 23.827 43.3789 25.1798 43.3789C26.204 43.3789 26.7647 43.84 27.0206 44.2592H27.045L27.0937 43.4942H28.0322ZM26.9231 45.4957C26.9231 45.3385 26.9109 45.2023 26.8622 45.0765C26.6672 44.5421 26.1431 44.102 25.3631 44.102C24.3389 44.102 23.6081 44.846 23.6081 46.0196C23.6081 47.0151 24.1931 47.843 25.3509 47.843C26.009 47.843 26.6062 47.4867 26.8378 46.8999C26.8987 46.7427 26.9236 46.5646 26.9236 46.4074L26.9231 45.4957ZM29.6892 45.0765C29.6892 44.4792 29.677 43.9658 29.6405 43.4942H30.5794L30.6155 44.4897H30.6642C30.9323 43.8086 31.5783 43.3789 32.2973 43.3789C32.4192 43.3789 32.504 43.3894 32.6015 43.4104V44.2801C32.4816 44.2576 32.3591 44.2471 32.2364 44.2487C31.4808 44.2487 30.944 44.7412 30.7983 45.4328C30.7681 45.5746 30.7518 45.7183 30.7495 45.8625V48.566H29.6892V45.0765ZM34.1503 46.1978C34.1747 47.4448 35.1005 47.9583 36.173 47.9583C36.9412 47.9583 37.4039 47.843 37.8061 47.6963L37.9889 48.3565C37.6111 48.5032 36.9651 48.6708 36.0267 48.6708C34.2108 48.6708 33.1261 47.6439 33.1261 46.114C33.1261 44.584 34.1742 43.3785 35.8926 43.3785C37.8183 43.3785 38.3301 44.8351 38.3301 45.7677C38.3301 45.9564 38.3058 46.1031 38.2936 46.1974L34.1503 46.1978ZM37.2947 45.5376C37.3064 44.9508 37.0139 44.0391 35.8078 44.0391C34.7231 44.0391 34.2478 44.8984 34.162 45.5376H37.2947ZM39.5489 47.4553C40.1233 47.7523 40.7798 47.9115 41.4501 47.9163C42.5348 47.9163 43.1686 47.4238 43.1686 46.7113C43.1686 46.0511 42.7298 45.6738 41.6208 45.3071C40.2801 44.8984 39.4514 44.3011 39.4514 43.3056C39.4514 42.2053 40.5117 41.3879 42.1083 41.3879C42.9492 41.3879 43.5586 41.5556 43.9242 41.7337L43.6317 42.4778C43.1521 42.2565 42.616 42.1412 42.0717 42.1424C40.9504 42.1424 40.5239 42.7188 40.5239 43.2008C40.5239 43.861 41.0231 44.1858 42.157 44.5631C43.5464 45.0245 44.2533 45.6005 44.2533 46.6379C44.2533 47.7277 43.3148 48.6708 41.377 48.6708C40.5848 48.6708 39.7195 48.4717 39.2803 48.2202L39.5489 47.4553ZM52.4798 49.6035C51.4204 49.3643 50.3715 49.0917 49.3354 48.7861C49.1648 48.7337 48.9942 48.6813 48.8358 48.6813C46.8858 48.6184 45.2161 47.3819 45.2161 45.108C45.2161 42.8445 46.8248 41.3879 49.0429 41.3879C51.2733 41.3879 52.724 42.876 52.724 44.9613C52.724 46.7741 51.749 47.9373 50.384 48.346V48.3879C51.2006 48.566 52.0903 48.7337 52.785 48.8385L52.4798 49.6035ZM51.6023 45.0032C51.6023 43.5885 50.7497 42.1315 49.0064 42.1315C47.2148 42.1315 46.3373 43.5567 46.3495 45.087C46.3373 46.5855 47.3001 47.9373 48.9576 47.9373C50.6522 47.9373 51.6023 46.6169 51.6023 45.0032ZM54.1003 41.5032H55.1611V47.8011H58.6711V48.566H54.1003V41.5032Z" fill="#808080"/>
</svg>
