<svg width="62" height="49" viewBox="0 0 62 49" fill="none" xmlns="http://www.w3.org/2000/svg">
<path d="M30.955 21.5856C33.4393 21.5856 35.4532 20.0032 35.4532 18.0513C35.4532 16.0994 33.4393 14.5171 30.955 14.5171C28.4707 14.5171 26.4568 16.0994 26.4568 18.0513C26.4568 20.0032 28.4707 21.5856 30.955 21.5856Z" fill="#808080"/>
<path d="M30.955 31.0483C34.4858 33.7465 37.9683 35.3426 40.7736 35.3426C41.6926 35.3426 42.5632 35.1906 43.2887 34.8485C45.8038 33.7085 46.7227 30.8582 45.8521 26.792C45.707 26.0699 45.5136 25.3478 45.2717 24.5878C46.2391 24.3598 47.1097 24.1318 47.9803 23.9037C52.8654 22.4216 55.5739 20.3695 55.5739 18.1273C55.5739 15.8472 52.8654 13.795 47.9803 12.3509C47.1097 12.0849 46.2391 11.8569 45.2717 11.6669C45.5136 10.9068 45.707 10.1847 45.8521 9.46269C46.6744 5.32039 45.7554 2.43218 43.2403 1.2921C42.5148 0.950076 41.6442 0.798065 40.7252 0.798065C37.9683 0.798065 34.4375 2.39418 30.9067 5.09238C27.4242 2.39418 23.9418 0.798065 21.1365 0.798065C20.2175 0.798065 19.3469 0.950076 18.6214 1.2921C16.1063 2.43218 15.1873 5.28239 16.0579 9.34869C16.203 10.0707 16.3965 10.7928 16.6383 11.5528C15.671 11.7809 14.8004 12.0089 13.9298 12.2369C9.04468 13.719 6.33612 15.7712 6.33612 18.0133C6.33612 20.2935 9.04468 22.3456 13.9298 23.7897C14.8004 24.0558 15.671 24.2838 16.6383 24.4738C16.3965 25.2338 16.203 25.9559 16.0579 26.6779C15.2357 30.7442 16.1547 33.6325 18.6214 34.7345C19.3469 35.0766 20.2175 35.2286 21.1365 35.2286C23.9418 35.3046 27.4242 33.7085 30.955 31.0483ZM28.2465 25.9179C29.1171 25.9559 30.0361 25.9559 30.955 25.9559C31.874 25.9559 32.793 25.9559 33.6636 25.9179C32.793 26.83 31.874 27.666 30.955 28.4641C30.0361 27.666 29.1171 26.83 28.2465 25.9179ZM22.2489 22.0036C22.7326 22.6497 23.1679 23.2577 23.6999 23.8657C22.2006 23.7137 20.7979 23.5237 19.4436 23.2957C19.8789 22.2696 20.3626 21.2055 20.943 20.1415C21.33 20.7495 21.7653 21.3956 22.2489 22.0036ZM19.4436 12.8449C20.7979 12.6169 22.2006 12.4269 23.6999 12.2749C23.2163 12.8829 22.7326 13.491 22.2489 14.137C21.7653 14.7831 21.33 15.3911 20.943 16.0372C20.3142 14.9351 19.8306 13.871 19.4436 12.8449ZM22.1038 18.0513C22.7326 17.0252 23.4097 15.9992 24.1836 14.9731C24.9091 13.985 25.7314 12.997 26.5536 12.0089C28.0046 11.9329 29.4556 11.8949 30.955 11.8949C32.5028 11.8949 33.9538 11.9329 35.3564 12.0089C36.2271 12.997 37.0009 13.985 37.7264 14.9731C38.5003 15.9992 39.1775 17.0252 39.8062 18.0513C39.1775 19.0774 38.5003 20.1035 37.7264 21.1295C37.0009 22.1176 36.1787 23.1057 35.3564 24.0938C33.9054 24.1698 32.4544 24.2078 30.955 24.2078C29.4073 24.2078 27.9563 24.1698 26.5536 24.0938C25.683 23.1057 24.9091 22.1176 24.1836 21.1295C23.4097 20.1035 22.7326 19.0774 22.1038 18.0513ZM41.0154 15.9992L39.7095 14.099C39.2258 13.453 38.7905 12.8449 38.2585 12.2369C39.7579 12.3889 41.1605 12.5789 42.5148 12.8069C42.0795 13.871 41.5958 14.9351 41.0154 15.9992ZM41.0154 20.1035C41.5958 21.1675 42.0795 22.2316 42.5148 23.2577C41.1605 23.4857 39.7579 23.6757 38.2585 23.8277C38.7422 23.2197 39.2258 22.6116 39.7095 21.9656C40.1448 21.3956 40.5801 20.7495 41.0154 20.1035ZM42.1279 33.2904C41.7409 33.4804 41.2572 33.5564 40.7252 33.5564C38.3552 33.5564 35.4048 32.0363 32.5028 29.7562C33.9054 28.5781 35.2597 27.248 36.614 25.7659C38.8873 25.6139 41.0638 25.3478 43.0952 24.9678C43.337 25.6519 43.4821 26.3359 43.6272 27.02C44.3044 30.2502 43.7723 32.5684 42.1279 33.2904ZM44.643 13.263C50.0601 14.4791 53.3007 16.3412 53.3007 18.0513C53.3007 19.5334 51.0758 21.0155 47.158 22.1936C46.3842 22.4216 45.5136 22.6497 44.643 22.8397C44.0142 21.2816 43.2403 19.6854 42.273 18.0513C43.2403 16.4172 44.0625 14.8211 44.643 13.263ZM40.7736 2.54619C41.3056 2.54619 41.7409 2.6222 42.1762 2.81221C43.7723 3.53426 44.3527 5.81443 43.6756 9.08267C43.5305 9.72871 43.337 10.4128 43.1436 11.1348C41.1121 10.7928 38.9356 10.5268 36.6624 10.3368C35.3564 8.85465 33.9538 7.52455 32.5511 6.34647C35.4532 4.10431 38.4036 2.54619 40.7736 2.54619ZM33.6636 10.1847C32.793 10.1467 31.874 10.1467 30.955 10.1467C30.0361 10.1467 29.1171 10.1467 28.2465 10.1847C29.1171 9.27268 30.0361 8.43662 30.955 7.63856C31.874 8.43662 32.793 9.31068 33.6636 10.1847ZM19.7822 2.81221C20.1691 2.6222 20.6528 2.54619 21.1849 2.54619C23.5548 2.54619 26.5052 4.0663 29.4073 6.34647C28.0046 7.52455 26.6503 8.85465 25.2961 10.3368C23.0228 10.4888 20.8463 10.7548 18.8149 11.1348C18.573 10.4508 18.4279 9.76672 18.2828 9.08267C17.6057 5.85243 18.1377 3.57227 19.7822 2.81221ZM17.2671 22.8397C11.85 21.6236 8.60938 19.7614 8.60938 18.0513C8.60938 16.5692 10.8343 15.0871 14.752 13.909C15.5259 13.681 16.3965 13.453 17.2671 13.263C17.8959 14.8211 18.6698 16.4172 19.6371 18.0513C18.6698 19.6854 17.8475 21.3196 17.2671 22.8397ZM18.2828 27.02C18.4279 26.3739 18.6214 25.6899 18.8149 24.9678C20.8463 25.3098 23.0228 25.5759 25.2961 25.7659C26.602 27.248 28.0046 28.5781 29.4073 29.7562C26.5052 31.9983 23.5548 33.5564 21.1849 33.5564C20.6528 33.5564 20.2175 33.4804 19.7822 33.2904C18.1377 32.5684 17.6057 30.2502 18.2828 27.02ZM16.2514 42.6771C17.3155 41.651 17.3638 40.5109 16.7834 39.3709C16.203 38.2308 14.9939 37.6987 13.4945 37.6607C11.7049 37.6227 9.86693 37.6607 8.07734 37.6607H7.73877V47.5035H9.18979V43.7792H11.463C11.7532 43.7792 11.9951 43.8552 12.1402 44.0452L15.0422 47.5795C15.0906 47.6555 15.2357 47.7695 15.3324 47.7695H17.2187C16.0579 46.3634 14.9455 45.0333 13.7847 43.6652C14.8004 43.5512 15.671 43.2852 16.2514 42.6771ZM9.18979 42.6011V38.8388H9.72183C10.8343 38.8388 11.9951 38.8008 13.1075 38.8768C14.4134 38.9148 15.3324 39.7129 15.3324 40.739C15.3324 41.765 14.2683 42.5631 12.9624 42.6011C11.8016 42.6391 10.6408 42.6011 9.18979 42.6011ZM27.9079 43.0951C27.134 40.4349 24.0385 39.7509 21.6685 40.587C19.8306 41.233 19.0083 42.4871 18.96 44.0452C18.9116 45.2233 19.3469 46.2874 20.5077 47.0854C21.8136 47.9975 23.4097 48.1115 25.0542 47.8835C25.9732 47.7315 26.7954 47.3894 27.4242 46.8574C27.1824 46.5914 26.9406 46.3254 26.6987 46.0974C25.3444 47.0094 23.8451 47.3134 22.2006 46.7054C21.1365 46.2874 20.6044 45.2613 20.5077 44.5012H28.0046V44.0072C28.053 43.6652 28.0046 43.3612 27.9079 43.0951ZM20.6044 43.7032C20.4593 42.5631 21.9104 41.347 23.5065 41.347C25.3444 41.309 26.5052 42.1831 26.5536 43.7032H20.6044ZM35.4532 40.3969C34.7277 40.2829 33.9538 40.2449 33.2283 40.2829C32.0675 40.3589 31.0518 40.777 30.2295 41.461C30.4714 41.727 30.6648 41.9931 30.955 42.2971C31.0518 42.2211 31.1485 42.1451 31.2452 42.1071C32.0191 41.537 32.9381 41.233 34.0505 41.309C34.9211 41.347 35.7434 41.575 35.9852 42.2591C36.1787 42.7911 36.1303 43.3612 36.1787 43.9312C36.0336 43.9312 35.9852 43.8932 35.9369 43.8552C34.776 43.0951 33.4701 42.9431 32.0675 43.2091C30.7616 43.4752 29.9393 44.2732 29.8426 45.2993C29.7458 46.4774 30.423 47.3514 31.7289 47.7695C32.5511 48.0355 33.4701 48.0355 34.3407 47.8835C35.0179 47.7695 35.3081 47.4655 36.2754 47.0474V47.5415H37.6297C37.6297 46.0213 37.6781 44.1592 37.6297 42.4111C37.6297 41.309 36.8075 40.625 35.4532 40.3969ZM36.1303 45.1853C36.082 45.2993 36.1303 45.4133 36.1303 45.5273C36.1303 46.3254 35.8885 46.5914 34.9211 46.8954C34.244 47.0854 33.5185 47.1614 32.793 46.9714C31.9707 46.7814 31.3903 46.2114 31.3903 45.5653C31.342 44.9193 31.874 44.2732 32.6962 44.0832C33.8087 43.7792 34.8244 43.9692 35.7434 44.5012C36.0336 44.6913 36.2271 44.8813 36.1303 45.1853ZM43.6756 41.423C44.9332 41.119 46.094 41.309 46.9646 42.1451L47.1097 42.2211C47.4482 41.9931 47.7385 41.765 48.1254 41.499C47.9803 41.385 47.9319 41.309 47.8352 41.195C46.4325 40.0169 43.6756 39.8649 41.9828 40.815C39.6128 42.1831 39.6611 44.8433 40.8219 46.2494C41.9344 47.5795 43.5305 48.0355 45.4168 47.8455C46.5293 47.7315 47.4482 47.3134 48.1738 46.5914C47.8352 46.3634 47.4966 46.1354 47.158 45.8693C47.0613 45.9453 47.0129 45.9833 46.9646 46.0594C45.6587 47.1994 43.4821 47.0854 42.3213 45.8693C41.6442 45.1473 41.4991 44.3112 41.6925 43.4752C41.7893 42.5251 42.4181 41.765 43.6756 41.423ZM53.736 46.5914C53.6393 46.6294 53.5909 46.6674 53.5909 46.6674C53.2039 46.8954 52.817 46.9334 52.3817 46.8194C51.9464 46.6674 51.898 46.3634 51.8497 46.0594V41.727C51.8497 41.651 51.8497 41.803 51.898 41.423H53.736V40.2829H51.8013V38.3828H50.3503V40.4349H49.0927C48.996 40.4349 48.8509 40.511 48.8509 40.587C48.8025 40.853 48.8509 41.043 48.8509 41.423H50.3986V46.2874C50.3986 46.8954 50.5921 47.4275 51.2693 47.7315C51.9948 48.0735 53.3974 47.9975 54.0262 47.5795C54.1229 47.5415 54.1713 47.3894 54.1713 47.3514C54.0262 47.1234 53.8811 46.8574 53.736 46.5914Z" fill="#808080"/>
</svg>
