<svg width="58" height="58" viewBox="0 0 58 58" fill="none" xmlns="http://www.w3.org/2000/svg">
<path d="M38.9688 53.65C38.9688 53.5141 39.0141 53.3781 38.9688 53.2422C38.8781 53.1063 38.8328 53.0156 38.7422 52.925C38.5156 52.6531 38.2891 52.4266 38.0172 52.1547L35.3438 49.436L37.4281 47.3063L38.561 46.0828C38.7422 45.9016 38.9688 45.5391 38.9688 45.2672V45.086C38.9688 44.6781 38.7875 44.4516 38.3797 44.361L38.4703 44.4063H38.1531C37.8813 44.4063 37.111 45.1313 36.9297 45.3578C36.25 46.0375 35.7969 46.6719 34.8906 47.3516V41.9594C34.8906 41.461 34.6188 41.2344 34.1203 41.2344H33.9844C33.486 41.2344 33.0781 41.461 33.0781 41.9594V53.6953C33.0781 54.1938 33.486 54.375 33.9844 54.375H34.1203C34.6188 54.375 34.8906 54.1485 34.8906 53.6953V51.611L36.25 52.925C36.6578 53.3328 37.0656 53.6047 37.4281 53.9672C37.6094 54.1485 37.9719 54.375 38.2438 54.375H38.3797C38.8328 54.375 38.9688 54.1485 39.0594 53.786L38.9688 53.8313V53.65ZM56.686 44.4063H56.5047C55.5078 44.4063 54.6016 44.6781 53.786 45.2672C52.4266 46.2641 51.6563 47.5781 51.6563 49.3V53.7406C51.6563 54.2391 51.8375 54.375 52.336 54.375H52.4719C52.9703 54.375 53.4688 54.1938 53.4688 53.7406V49.5719C53.4688 48.6656 53.65 47.8047 54.3297 47.125C54.8735 46.5813 55.5532 46.1281 56.3235 46.1281C56.9125 46.1281 57.5922 45.9922 57.5922 45.2672C57.5922 44.7235 57.1844 44.4063 56.686 44.4063ZM49.7078 46.6719C49.2094 45.8563 48.5297 45.2219 47.6688 44.8141C46.0828 44.0438 44.4063 43.9531 42.8656 44.8594L42.6391 44.9953C42.0047 45.3578 41.461 45.811 41.0531 46.4C39.875 48.1219 39.7391 50.0703 40.7813 51.8828L40.8719 52.0641C41.325 52.8344 41.9141 53.4688 42.6844 53.8766C44.3156 54.7828 46.0828 54.8735 47.7141 53.9672L47.85 53.8766C48.3031 53.6047 48.3938 53.1516 48.1672 52.6985C48.0766 52.5172 47.8953 52.3813 47.7141 52.2906H47.6235C47.3063 52.2453 46.4453 52.6078 46.1282 52.7438C45.4938 52.8344 44.7688 52.8797 44.1344 52.6531L47.5781 49.6625C48.0766 49.2094 48.6203 48.711 49.1641 48.3031C49.6172 47.9406 50.0703 47.4422 49.7078 46.8078V46.6719ZM46.5813 48.3031L42.7297 51.611C42.5938 51.475 42.5031 51.2938 42.4125 51.1578C42.1406 50.7047 41.9594 50.161 41.9594 49.6172C41.9141 48.2578 42.4125 47.125 43.636 46.4453C44.5422 45.9016 45.5391 45.811 46.536 46.1735C47.0344 46.3547 47.6235 46.6719 47.9407 47.125C47.4875 47.5328 46.9891 47.8953 46.5813 48.3031ZM9.96876 41.2344H9.83282C9.33438 41.2344 9.0625 41.4156 9.0625 41.9141V45.5844C8.15625 44.7688 7.06875 44.4516 5.8 44.4516H5.4375C4.57656 44.4516 3.76094 44.5875 2.99063 45.0406C1.35938 45.9922 0.453125 47.3969 0.453125 49.3V49.6625C0.453125 50.5235 0.679688 51.2485 1.13281 52.0188C2.08438 53.65 3.57969 54.4656 5.4375 54.4656H5.8C6.66094 54.4656 7.56719 54.3297 8.29219 53.9219C9.92344 52.9703 10.875 51.5656 10.875 49.7078V42.0047C10.875 41.4156 10.4672 41.2344 9.96876 41.2344ZM8.56407 51.1125C7.88438 52.2453 6.8875 52.8797 5.57344 52.8797C5.02969 52.8797 4.48594 52.7438 4.03281 52.4719C2.85469 51.8375 2.175 50.7953 2.175 49.436C2.175 48.9375 2.26563 48.4844 2.49219 48.0313C3.12656 46.7172 4.16875 45.9922 5.61875 45.9922C6.34375 45.9922 6.97813 46.2188 7.52188 46.6266C8.47344 47.3063 9.01719 48.2125 9.01719 49.3906C9.0625 50.025 8.88125 50.5688 8.56407 51.1125ZM17.0375 44.4063H16.7656C15.9047 44.4063 15.0438 44.5422 14.3188 44.9953C12.6875 45.9469 11.7813 47.3516 11.7813 49.2547V49.6172C11.7813 50.4781 12.0078 51.2031 12.4609 51.9735C13.4125 53.6047 14.9078 54.4203 16.8109 54.4203H17.1734C18.0344 54.4203 18.8953 54.2844 19.6656 53.8766C21.2969 52.925 22.2484 51.5203 22.2484 49.6625V49.3C22.2484 48.4844 21.9766 47.8047 21.6141 47.125C20.6172 45.3125 19.0313 44.4063 17.0375 44.4063ZM19.9375 51.1125C19.2578 52.2 18.3063 52.8797 16.9922 52.8797C16.4031 52.8797 15.8141 52.7438 15.2703 52.4266C14.1375 51.7469 13.5031 50.7953 13.5031 49.4813C13.5031 48.9828 13.5938 48.5297 13.8203 48.0766C14.4547 46.7625 15.4969 46.0375 16.9469 46.0375C17.6266 46.0375 18.2156 46.2188 18.7594 46.5813C19.7563 47.261 20.3453 48.2125 20.3453 49.436C20.3906 49.9797 20.2547 50.5688 19.9375 51.1125ZM31.0391 45.0406L30.9938 45.086C30.2235 44.5875 29.3625 44.4063 28.4563 44.4063H28.0938C27.2328 44.4063 26.3719 44.5422 25.6469 44.9953C24.0156 45.9469 23.1094 47.3516 23.1094 49.2094V49.5719C23.1094 50.025 23.2 50.4328 23.2906 50.886C24.0156 53.3781 25.9641 54.7828 28.5922 54.6016C29.3172 54.5563 31.2656 54.3297 31.2656 53.2422V53.061C31.2656 52.6531 30.9485 52.2906 30.586 52.2L30.5406 52.1094H30.2235L30.1328 52.2453C29.725 52.4266 29.0453 52.7891 28.5922 52.7891C28.0485 52.7891 27.4594 52.7891 26.961 52.5172C25.6469 51.8828 24.8766 50.8406 24.8766 49.3906C24.8766 48.8922 24.9672 48.4391 25.1938 47.986C25.8281 46.7172 26.8703 45.9016 28.3203 45.9469C28.5922 45.9469 29.0906 46.0828 29.3625 46.2188C29.5891 46.3094 30.1781 46.6719 30.45 46.6719H30.5406L30.586 46.5813C30.9938 46.4906 31.311 46.1735 31.311 45.7656V45.5844C31.311 45.4031 31.2203 45.2672 31.1297 45.1313L31.0391 45.0406ZM2.62813 30.9031L2.67344 30.9938C6.25313 37.0656 12.5063 39.6031 19.3484 39.6031C32.5797 39.6031 43.5 33.6672 48.4844 21.2063C51.8375 21.3875 55.2813 20.3906 56.9125 17.1734L57.3203 16.3578L56.5047 15.9047C54.5563 14.7719 51.9735 14.6359 49.7985 15.2703C49.5266 12.9141 47.986 10.875 46.1735 9.425L45.4485 8.83594L44.8594 9.56094C43.636 10.9656 43.2735 13.3219 43.4547 15.1344C43.5906 16.4484 43.9985 17.8078 44.8141 18.8953C44.1797 19.2578 43.5 19.7563 42.8656 19.9828C41.5969 20.4359 40.1922 20.8891 38.8328 20.8891H35.7969V14.5H29.9063V3.17188H23.1094V8.60938H11.7813V14.5H5.89063V20.8438H0.815625L0.725 21.5234C0.498438 24.4234 0.860938 27.2328 2.08438 29.9063L2.62813 30.9031ZM29.9063 15.8594H34.8906V20.8438H29.9063V15.8594ZM24.0156 4.07813H29V9.0625H24.0156V4.07813ZM24.0156 9.96875H29V14.9531H24.0156V9.96875ZM24.0156 15.8594H29V20.8438H24.0156V15.8594ZM18.125 9.96875H23.1094V14.9531H18.125V9.96875ZM18.125 15.8594H23.1094V20.8438H18.125V15.8594ZM18.6234 29.9969C18.6234 30.7672 17.9891 31.4016 17.2188 31.4016C16.4484 31.4016 15.8141 30.7672 15.8141 29.9969C15.8141 29.2266 16.4484 28.5922 17.2188 28.5922C17.9891 28.6375 18.6234 29.2266 18.6234 29.9969ZM12.6875 9.96875H17.2188V14.9531H12.6875V9.96875ZM12.6875 15.8594H17.2188V20.8438H12.6875V15.8594ZM6.79688 15.8594H11.7813V20.8438H6.79688V15.8594ZM7.88438 33.0781C8.60938 33.0781 9.33438 33.0781 10.0141 33.0328C11.7813 32.9422 13.3219 32.7156 14.5906 32.3531C15.6328 34.7547 17.5359 36.975 20.9344 38.6063L19.3484 38.6516C12.1891 38.6063 8.3375 36.2047 5.16563 33.0328C6.11719 33.0781 7.02344 33.0781 7.88438 33.0781ZM17.2188 30.9938C17.7625 30.9938 18.2156 30.5406 18.2156 29.9969C18.2156 29.8609 18.1703 29.725 18.125 29.6344C18.0344 29.7703 17.9438 29.861 17.7625 29.861C17.5359 29.861 17.3547 29.6797 17.3547 29.4531C17.3547 29.3172 17.4453 29.1813 17.5359 29.0906C17.4906 29.0453 17.3547 29 17.2188 29C16.675 29 16.2219 29.4531 16.2219 29.9969C16.2672 30.5406 16.675 30.9938 17.2188 30.9938Z" fill="#808080"/>
</svg>
