<svg width="50" height="51" viewBox="0 0 50 51" fill="none" xmlns="http://www.w3.org/2000/svg">
<path d="M24.6096 0.768863C19.5582 0.848005 14.4888 2.52108 10.1829 5.88938C-0.414923 14.1807 -2.37039 29.6044 5.8164 40.3381C14.0044 51.071 29.234 53.0499 39.8302 44.757C50.4237 36.466 52.3788 21.0467 44.1951 10.3146C39.336 3.94129 31.9923 0.652919 24.6096 0.768863ZM35.8911 9.92524C36.6807 9.93002 37.4471 10.196 38.0736 10.6826L34.9214 13.8946C34.9107 13.9069 34.9008 13.9199 34.8917 13.9334C34.8349 13.9916 34.8016 14.0693 34.7984 14.1511C34.7983 14.2005 34.8093 14.2493 34.8305 14.2938C34.8516 14.3384 34.8825 14.3775 34.9206 14.4083H34.9214L37.3047 16.8221C36.6524 17.1104 35.9293 17.1925 35.2301 17.0574C34.531 16.9223 33.8885 16.5764 33.3867 16.0651C32.3764 15.0363 32.0834 13.4914 32.6237 12.1511C33.164 10.8097 34.4522 9.93316 35.8911 9.92524ZM38.673 11.2833C39.1884 11.9149 39.4694 12.7092 39.4673 13.5286C39.4658 14.4885 39.088 15.4086 38.417 16.0865C38.2825 16.2147 38.1391 16.333 37.9881 16.4406L36.0646 14.5226L35.6884 14.1416L35.7919 14.0367L38.6726 11.2825L38.673 11.2833ZM38.53 12.9425C38.4592 12.92 38.3828 12.9244 38.3151 12.9548C38.248 12.9899 38.1974 13.0506 38.1744 13.1234C38.1631 13.1597 38.159 13.198 38.1624 13.236C38.1657 13.2739 38.1765 13.3108 38.194 13.3446C38.2632 13.4925 38.2905 13.6569 38.2728 13.8196C38.255 13.9823 38.193 14.1368 38.0935 14.2658C38.0681 14.2907 38.0481 14.3208 38.035 14.3541C38.0218 14.3874 38.0158 14.4231 38.0174 14.4589C38.0189 14.5317 38.0447 14.6014 38.0935 14.6536C38.1456 14.6738 38.2032 14.6738 38.2553 14.6536C38.3023 14.6655 38.3516 14.6641 38.3978 14.6497C38.4441 14.6353 38.4856 14.6083 38.5178 14.5717C38.6842 14.3653 38.7896 14.1154 38.8217 13.851C38.8538 13.5865 38.8115 13.3182 38.6995 13.0771V13.0787C38.6613 13.0138 38.601 12.9654 38.53 12.9425ZM30.9984 15.6029C31.4698 15.6192 31.9234 15.7894 32.2916 16.0881C31.8952 16.146 31.5278 16.3319 31.2441 16.6183L22.3334 25.603L20.5846 23.8317C25.2058 19.1734 28.0314 16.7402 29.788 15.9428C30.1499 15.712 30.5707 15.5941 30.9984 15.6029ZM32.5475 16.7742C32.8467 16.7745 33.1336 16.8945 33.3457 17.1082C33.4583 17.2156 33.5471 17.3459 33.6063 17.4906C33.6655 17.6352 33.6937 17.791 33.6891 17.9475C33.684 18.1035 33.6472 18.2567 33.581 18.3977C33.5148 18.5386 33.4206 18.6642 33.3043 18.7666L23.8298 27.1185L22.8073 26.083L31.7493 17.1082C31.9615 16.8947 32.2484 16.7744 32.5475 16.7742ZM33.7173 19.4247C33.057 22.0768 29.5575 25.6702 25.9083 29.162L24.4326 27.669L33.7173 19.4247ZM20.0692 24.3549L20.1763 24.4617L21.5488 25.8519L17.7864 26.667L20.0692 24.3549ZM22.3326 26.6658L22.3341 26.6674L22.7905 27.1403L22.7975 27.1735L22.828 27.1783L22.9249 27.2788L23.2453 27.6112L21.1413 27.8724L22.3326 26.6658ZM23.8434 28.2788L25.2414 29.6938C22.1502 32.2972 18.7581 34.5104 15.1397 36.2848C15.0223 36.3415 14.9278 36.4376 14.8725 36.5569C14.8171 36.6761 14.8043 36.8112 14.8362 36.9389L15.2405 38.7196C15.2555 38.7405 15.2635 38.7657 15.2635 38.7914C15.2635 38.8172 15.2555 38.8424 15.2405 38.8633C15.2183 38.8835 15.1895 38.8946 15.1597 38.8946C15.1298 38.8946 15.101 38.8835 15.0788 38.8633L12.6947 36.4288L20.0431 28.8771L23.8434 28.2788ZM12.1485 36.9607L12.488 37.2828L14.2431 39.0603L10.3298 38.8039L12.1485 36.9607Z" fill="#808080"/>
</svg>
