<svg width="32" height="29" viewBox="0 0 32 29" fill="none" xmlns="http://www.w3.org/2000/svg">
<path d="M29.2619 0.76887H6.64054C6.12728 0.763574 5.6329 0.964946 5.2659 1.3288C4.89889 1.69266 4.68923 2.18927 4.68292 2.70968V25.7392C4.69037 26.2588 4.90054 26.7543 5.26742 27.1172C5.6343 27.4801 6.12802 27.6809 6.64054 27.6756H29.2619C29.7752 27.6797 30.2692 27.4776 30.636 27.1136C31.0029 26.7495 31.2126 26.253 31.2195 25.7326V2.70306C31.2104 2.18418 30.9996 1.68993 30.633 1.32775C30.2664 0.965564 29.7737 0.764719 29.2619 0.76887ZM12.5504 23.7057H8.61121V10.8545H12.5504V23.7057ZM10.5928 9.10333C10.1409 9.10377 9.69917 8.96832 9.3233 8.71413C8.94743 8.45994 8.65436 8.09842 8.48116 7.67531C8.30797 7.25221 8.26243 6.78652 8.35031 6.33716C8.43819 5.88781 8.65553 5.47498 8.97485 5.1509C9.29417 4.82681 9.70112 4.60604 10.1442 4.51651C10.5873 4.42698 11.0466 4.47271 11.4641 4.64791C11.8815 4.82312 12.2384 5.11994 12.4894 5.5008C12.7405 5.88167 12.8745 6.32949 12.8745 6.78759C12.8739 7.09207 12.8141 7.39345 12.6985 7.67447C12.583 7.9555 12.4139 8.21065 12.2009 8.42534C11.988 8.64002 11.7354 8.81002 11.4575 8.9256C11.1797 9.04118 10.8822 9.10008 10.5819 9.09892L10.5928 9.10333ZM27.3043 23.7057H23.3651V17.4532C23.3651 15.9645 23.339 14.048 21.3183 14.048C19.2976 14.048 18.9539 15.6712 18.9539 17.3562V23.7057H15.0213V10.8545H18.7973V12.6188H18.8495C19.3759 11.6087 20.6593 10.5435 22.5755 10.5435C26.5647 10.5347 27.3043 13.1967 27.3043 16.6482V23.7057Z" fill="black"/>
</svg>
