<svg width="40" height="48" viewBox="0 0 40 48" fill="none" xmlns="http://www.w3.org/2000/svg">
<path d="M35.3056 37.5733L14.0448 43.8614C13.3952 44.0537 12.7727 43.4919 12.9092 42.8364L20.5044 6.46236C20.6465 5.78178 21.5868 5.67412 21.8834 6.30406L35.9465 36.1669C36.2118 36.7307 35.9092 37.3951 35.3055 37.5733M38.9513 36.0896L22.6684 1.51131C21.5949 -0.496647 19.0548 -0.423793 18.0624 1.25674L0.402518 29.8603C-0.144575 30.7522 -0.133744 31.8515 0.433622 32.7318L9.06612 46.1045C9.95619 47.1656 10.7792 47.6661 12.185 47.2503L37.2425 39.8393C38.9119 39.3394 39.7162 37.7266 38.9513 36.0896Z" fill="#808080"/>
</svg>
