<svg width="41" height="45" viewBox="0 0 41 45" fill="none" xmlns="http://www.w3.org/2000/svg">
<path d="M20.2823 0.483337C17.625 0.483337 14.9937 1.06316 12.5386 2.1897C10.0836 3.31625 7.85286 4.96745 5.97384 7.04903C2.17898 11.253 0.0470581 16.9547 0.0470581 22.9C0.0470581 32.8082 5.85459 41.2144 13.888 44.1958C14.8998 44.3752 15.2235 43.6803 15.2235 43.075V39.2866C9.61835 40.6316 8.42447 36.2828 8.42447 36.2828C7.49364 33.6824 6.17835 32.9875 6.17835 32.9875C4.33694 31.5977 6.32 31.6425 6.32 31.6425C8.34353 31.7994 9.416 33.9514 9.416 33.9514C11.1765 37.3588 14.1511 36.35 15.3045 35.812C15.4866 34.3549 16.0127 33.3686 16.5793 32.8082C12.0871 32.2478 7.37223 30.3199 7.37223 21.7792C7.37223 19.2909 8.14117 17.2958 9.45647 15.7043C9.25412 15.1438 8.54588 12.8125 9.65882 9.78625C9.65882 9.78625 11.3586 9.181 15.2235 12.0728C16.8221 11.5796 18.5623 11.333 20.2823 11.333C22.0023 11.333 23.7426 11.5796 25.3412 12.0728C29.2061 9.181 30.9059 9.78625 30.9059 9.78625C32.0188 12.8125 31.3106 15.1438 31.1082 15.7043C32.4235 17.2958 33.1925 19.2909 33.1925 21.7792C33.1925 30.3423 28.4574 32.2253 23.9449 32.7858C24.6734 33.4807 25.3412 34.8481 25.3412 36.9328V43.075C25.3412 43.6803 25.6649 44.3976 26.6969 44.1958C34.7303 41.192 40.5176 32.8082 40.5176 22.9C40.5176 19.9562 39.9942 17.0412 38.9773 14.3215C37.9604 11.6018 36.4699 9.13061 34.5909 7.04903C32.7118 4.96745 30.4811 3.31625 28.0261 2.1897C25.571 1.06316 22.9397 0.483337 20.2823 0.483337Z" fill="black"/>
</svg>
