<svg width="80" height="17" viewBox="0 0 80 17" fill="none" xmlns="http://www.w3.org/2000/svg">
<path d="M67.1161 0.00671876V2.5786H61.5884V16.1094H58.8244V2.57875H53.1816V0.00671876H67.1161ZM67.7375 14.5755C67.9322 14.5755 68.1025 14.6455 68.2467 14.7858C68.393 14.926 68.4658 15.0939 68.4678 15.2896C68.4673 15.4179 68.4316 15.5436 68.3647 15.6532C68.2988 15.7611 68.2067 15.8506 68.0969 15.9133C67.9884 15.9784 67.864 16.0122 67.7375 16.0111C67.535 16.0111 67.3628 15.941 67.2188 15.8008C67.0745 15.6605 67.0031 15.4906 67.005 15.2896C67.0032 15.0939 67.0745 14.926 67.2188 14.7858C67.3628 14.6455 67.535 14.5755 67.7375 14.5755ZM12.9556 16.1094L2.76406 3.44188V16.1028H0V0H3.45484L16.3308 15.9889L16.3309 2.57875L16.3298 0.00671876H30.2642V2.5786H19.0948V6.7161H28.0773V9.28814H19.0948V13.5375H30.2644V16.1094H12.9556ZM39.1227 9.26361L40.9341 11.5156L37.2223 16.1285H33.595L39.1227 9.26361ZM37.2223 0.0134375L41.8989 5.82126L46.5608 0.0312501L50.178 0.0257813L43.7098 8.07033L50.1884 16.1161H46.5608L33.6053 0.0134375H37.2223ZM72.4548 9.22751H73.6795V13.9463C73.6778 14.3799 73.5839 14.7506 73.4006 15.0627C73.2152 15.3744 72.9584 15.6125 72.6291 15.7805C72.3012 15.9464 71.9173 16.0314 71.4809 16.0314C71.082 16.0314 70.7245 15.9596 70.4061 15.8192C70.0877 15.6789 69.835 15.4686 69.6495 15.1917C69.462 14.915 69.3703 14.5699 69.3703 14.1566H70.5972C70.5991 14.3374 70.6402 14.4941 70.7188 14.6253C70.7961 14.7549 70.9093 14.8593 71.0447 14.926C71.1851 14.9963 71.3461 15.0314 71.5277 15.0313C71.7245 15.0313 71.893 14.9906 72.0297 14.9075C72.1664 14.8263 72.2712 14.7045 72.3444 14.5422C72.4155 14.3816 72.453 14.1824 72.4548 13.9461V9.22751ZM78.7189 11.0728C78.6892 10.7869 78.558 10.5635 78.3295 10.4049C78.0991 10.2442 77.8014 10.165 77.4361 10.165C77.1798 10.165 76.9587 10.2038 76.7752 10.2794C76.5917 10.3569 76.4494 10.4602 76.3519 10.5913C76.2547 10.7222 76.2059 10.8717 76.202 11.0397C76.202 11.1799 76.2358 11.3017 76.3013 11.4031C76.3691 11.5095 76.4608 11.5987 76.5691 11.6635C76.6866 11.7374 76.8124 11.7974 76.9438 11.8424C77.0823 11.8903 77.2208 11.9309 77.3594 11.9642L77.998 12.1211C78.2547 12.1802 78.5038 12.2594 78.7416 12.361C78.9792 12.4606 79.1947 12.588 79.3837 12.7411C79.573 12.8942 79.7229 13.0788 79.8333 13.2947C79.9438 13.5106 80 13.7635 80 14.055C80 14.448 79.8989 14.7931 79.6947 15.0921C79.4906 15.3892 79.1966 15.6217 78.8108 15.7897C78.4269 15.9558 77.9623 16.0407 77.4156 16.0407C76.8875 16.0407 76.4269 15.9594 76.0391 15.7971C75.6497 15.6366 75.3462 15.4002 75.127 15.0902C74.9078 14.7802 74.79 14.4019 74.7731 13.9572H75.9869C76.0036 14.1897 76.0786 14.3835 76.2059 14.5403C76.335 14.6953 76.5036 14.8097 76.7097 14.8872C76.9175 14.963 77.1497 15.0017 77.4062 15.0017C77.6741 15.0017 77.91 14.9611 78.1141 14.8817C78.3164 14.8024 78.4755 14.6917 78.5898 14.5477C78.7059 14.4055 78.7641 14.2377 78.7659 14.0458C78.7641 13.8705 78.7114 13.7247 78.6103 13.6102C78.5073 13.4958 78.3649 13.3999 78.1833 13.3224C78 13.2449 77.7864 13.1747 77.543 13.1139L76.7677 12.9183C76.2077 12.7761 75.7639 12.5603 75.4398 12.2705C75.1141 11.9808 74.953 11.5971 74.953 11.1153C74.953 10.7205 75.0616 10.3735 75.2808 10.0763C75.498 9.77939 75.7958 9.54861 76.1722 9.38439C76.5503 9.2183 76.9775 9.13705 77.453 9.13705C77.9363 9.13705 78.3594 9.2183 78.7247 9.38439C79.0897 9.54861 79.3764 9.77736 79.5841 10.0689C79.792 10.3606 79.9008 10.6945 79.9064 11.0728H78.7189Z" fill="#808080"/>
</svg>
