<svg width="151" height="43" viewBox="0 0 151 43" fill="none" xmlns="http://www.w3.org/2000/svg">
<g clip-path="url(#clip0_24_18)">
<path d="M11.7051 4.39877C10.1716 2.43351 8.8506 0.437668 8.58104 0.0229573C8.57463 0.0157015 8.56691 0.00992614 8.55837 0.00598028C8.54983 0.00203441 8.54064 0 8.53135 0C8.52206 0 8.51286 0.00203441 8.50432 0.00598028C8.49578 0.00992614 8.48807 0.0157015 8.48165 0.0229573C8.2118 0.437668 6.89114 2.43351 5.35755 4.39877C-7.80629 22.5308 7.43085 34.767 7.43085 34.767L7.55855 34.8593C7.67209 36.7475 7.9561 39.4651 7.9561 39.4651H9.09214C9.09214 39.4651 9.37615 36.7628 9.48969 34.8593L9.61769 34.7517C9.63185 34.767 24.8687 22.5308 11.7051 4.39877ZM8.52412 34.4908C8.52412 34.4908 7.84256 33.8611 7.65794 33.5391V33.5082L8.48165 13.7642C8.48165 13.7027 8.56688 13.7027 8.56688 13.7642L9.39031 33.5082V33.5391C9.20569 33.8611 8.52412 34.4908 8.52412 34.4908Z" fill="#808080"/>
<path d="M37.0392 30.4618L30.6896 13.7132L30.6757 13.667H25.7358V14.7926H26.5326C26.7748 14.7926 27.0025 14.9009 27.1735 15.0857C27.3443 15.2707 27.4298 15.5176 27.4298 15.7801L27.2874 32.6361C27.2874 33.1607 26.8889 33.5922 26.4047 33.6079L25.5933 33.6231V34.7335H30.4053V33.6231L29.9068 33.6079C29.4229 33.5922 29.0241 33.1607 29.0241 32.6364V16.7509L35.943 34.7332C36.0427 34.9953 36.2704 35.1651 36.527 35.1651C36.783 35.1651 37.0106 34.9953 37.1103 34.7332L43.8729 17.1519L43.9726 32.6361C43.9726 33.1756 43.5738 33.6075 43.0754 33.6228H42.5628V34.7332H48.2006V33.6228H47.4317C46.948 33.6228 46.549 33.1756 46.5351 32.6513L46.4921 15.7947C46.4919 15.5387 46.5838 15.2926 46.7486 15.1084C46.9133 14.9243 47.1378 14.8165 47.3748 14.8079L48.2006 14.7923V13.6667H43.3886L37.0392 30.4618ZM81.3108 33.3298C81.1539 33.16 81.0681 32.9285 81.0681 32.6501V24.3699C81.0681 22.7942 80.6402 21.558 79.7837 20.6776C78.9414 19.7969 77.7712 19.3491 76.3155 19.3491C74.274 19.3491 72.6614 20.245 71.5336 22.0061C71.5194 22.037 71.4767 22.0526 71.4339 22.0526C71.3912 22.0526 71.3625 22.0214 71.3625 21.9752L70.8343 19.766H69.9493L67.6799 21.1719V21.9443H68.265C68.5363 21.9443 68.7646 22.0214 68.9218 22.1762C69.0787 22.3307 69.1642 22.5623 69.1642 22.8865V32.6348C69.1642 32.9128 69.0787 33.1447 68.9218 33.3148C68.7646 33.4846 68.5505 33.5773 68.2936 33.5773H67.7226V34.7048H72.9466V33.5773H72.3759C72.1187 33.5773 71.9046 33.4846 71.7477 33.3148C71.5908 33.1447 71.505 32.9128 71.505 32.6348V26.1771C71.505 25.3585 71.6763 24.5396 71.9904 23.736C72.3187 22.9483 72.8038 22.2839 73.4462 21.7739C74.0885 21.264 74.8594 21.0171 75.7442 21.0171C76.7434 21.0171 77.4999 21.357 77.9709 22.0367C78.4418 22.7164 78.6846 23.5971 78.6846 24.6476V32.6192C78.6846 32.8972 78.599 33.1288 78.4418 33.2989C78.2847 33.469 78.0708 33.5614 77.8137 33.5614H77.243V34.6892H82.4669V33.5617H81.8963C81.6822 33.5926 81.4822 33.4999 81.3108 33.3298ZM129.039 14.928C127.595 14.0976 125.981 13.6667 124.24 13.6667H117.445V14.7895H118.11C118.365 14.7895 118.591 14.8971 118.818 15.143C119.03 15.3739 119.143 15.6354 119.143 15.9122V32.4593C119.143 32.7364 119.03 32.9976 118.818 33.2285C118.605 33.4591 118.365 33.5821 118.11 33.5821H117.444V34.7048H124.24C125.981 34.7048 127.595 34.2742 129.039 33.4435C130.483 32.6128 131.658 31.3827 132.507 29.8143C133.357 28.2459 133.796 26.3542 133.796 24.2011C133.796 22.0482 133.357 20.1718 132.508 18.5881C131.644 16.9888 130.483 15.7737 129.039 14.928ZM131.064 24.1705C131.064 26.1389 130.738 27.7997 130.101 29.1378C129.464 30.4755 128.615 31.4751 127.567 32.1213C126.519 32.767 125.358 33.0899 124.113 33.0899H122.739C122.485 33.0899 122.258 32.9823 122.032 32.7364C121.819 32.5055 121.706 32.2443 121.706 31.9675V16.3582C121.706 16.0811 121.805 15.8355 122.032 15.5893C122.244 15.3587 122.485 15.2357 122.739 15.2357H124.113C125.358 15.2357 126.519 15.5584 127.567 16.2043C128.615 16.8503 129.464 17.8498 130.101 19.1879C130.738 20.541 131.064 22.2173 131.064 24.1705ZM149.859 25.2932C149.23 24.5087 148.017 23.8475 146.591 23.4936C148.56 22.4326 149.573 20.941 149.573 19.0184C149.573 17.9731 149.317 17.0347 148.802 16.2352C148.289 15.4357 147.561 14.7895 146.634 14.3435C145.705 13.8976 144.621 13.667 143.393 13.667H135.702V14.7895H136.315C136.572 14.7895 136.8 14.8971 137.029 15.143C137.243 15.3739 137.357 15.6354 137.357 15.9122V32.4593C137.357 32.7364 137.243 32.9976 137.029 33.2285C136.815 33.4591 136.572 33.5821 136.315 33.5821H135.644V34.7048H143.994C145.263 34.7048 146.447 34.4742 147.518 34.0127C148.589 33.5515 149.445 32.8746 150.059 31.9828C150.686 31.0909 151 29.9987 151 28.7377C150.986 27.3846 150.615 26.231 149.859 25.2932ZM140.283 32.7517C140.068 32.5211 139.954 32.2596 139.954 31.9828V24.5546H143.922C145.32 24.5546 146.39 24.939 147.132 25.7076C147.874 26.4768 148.246 27.4765 148.246 28.7068C148.246 29.4448 148.073 30.1679 147.761 30.8291C147.432 31.5056 146.946 32.0439 146.291 32.4593C145.648 32.8743 144.849 33.0899 143.922 33.0899H140.995C140.739 33.0899 140.51 32.982 140.282 32.7514M139.968 22.9706V16.3735C139.968 16.0967 140.068 15.8508 140.296 15.6046C140.51 15.3739 140.753 15.251 141.01 15.251H142.894C144.249 15.251 145.248 15.6202 145.877 16.3276C146.504 17.0503 146.818 17.9731 146.818 19.1108C146.818 20.2798 146.518 21.2178 145.934 21.9252C145.348 22.6171 144.463 22.9709 143.293 22.9709L139.968 22.9706ZM61.4234 20.3295C60.3328 19.686 59.1147 19.3484 57.7976 19.3484C56.5153 19.3484 55.3135 19.6539 54.2574 20.2785L54.1721 20.3295C53.0815 20.9732 52.2177 21.908 51.5804 23.0881C50.9433 24.2683 50.6174 25.6478 50.6174 27.1802C50.6174 28.7129 50.943 30.0924 51.5804 31.2725C52.2177 32.4526 53.0815 33.3874 54.1721 34.0309C55.2628 34.6743 56.4808 35.0119 57.7976 35.0119C59.0802 35.0119 60.282 34.7067 61.3379 34.0824L61.4234 34.0312C62.5137 33.3874 63.3778 32.4526 64.0152 31.2725C64.6522 30.0924 64.9781 28.7129 64.9781 27.1802C64.9781 25.6478 64.6522 24.2683 64.0152 23.0881C63.3781 21.908 62.514 20.9729 61.4234 20.3295ZM62.4712 27.1805C62.4712 29.0658 62.0466 30.5982 61.1966 31.7018C60.3611 32.8052 59.2141 33.3722 57.7976 33.3722C56.4068 33.3722 55.2754 32.8253 54.4438 31.7604L54.3989 31.7018C53.549 30.5982 53.124 29.0658 53.124 27.1805C53.124 25.3299 53.5339 23.8188 54.3529 22.7199L54.3989 22.6594C55.2341 21.5561 56.3817 20.9888 57.7976 20.9888C59.2141 20.9888 60.3611 21.5558 61.1966 22.6594C62.0466 23.7631 62.4712 25.2955 62.4712 27.1805ZM111.614 20.3298C110.524 19.6864 109.306 19.3487 107.989 19.3487C106.707 19.3487 105.504 19.6542 104.449 20.2788L104.363 20.3298C103.273 20.9735 102.409 21.9084 101.772 23.0885C101.134 24.2686 100.808 25.6481 100.808 27.1805C100.808 28.7132 101.134 30.0927 101.772 31.2728C102.409 32.4529 103.273 33.3878 104.363 34.0312C105.454 34.6749 106.672 35.0122 107.989 35.0122C109.271 35.0122 110.473 34.7071 111.529 34.0828L111.615 34.0315C112.705 33.3878 113.569 32.4529 114.206 31.2728C114.843 30.0927 115.169 28.7132 115.169 27.1805C115.169 25.6481 114.843 24.2686 114.206 23.0885C113.569 21.9084 112.691 20.9732 111.614 20.3298ZM112.663 27.1808C112.663 29.0661 112.238 30.5985 111.388 31.7022C110.552 32.8055 109.405 33.3725 107.989 33.3725C106.598 33.3725 105.466 32.8256 104.635 31.7608L104.59 31.7022C103.74 30.5985 103.315 29.0661 103.315 27.1808C103.315 25.3149 103.725 23.8185 104.544 22.7203L104.59 22.6597C105.425 21.5564 106.573 20.9891 107.989 20.9891C109.405 20.9891 110.552 21.5561 111.388 22.6597C112.224 23.7634 112.663 25.2958 112.663 27.1808ZM91.3733 19.3494C90.2321 19.3494 89.1909 19.6111 88.2495 20.1345C87.3081 20.6578 86.5664 21.3662 86.0387 22.2746C85.5139 23.1561 85.2365 24.1828 85.2401 25.2308C85.2401 26.1854 85.4398 27.0629 85.8535 27.8484C86.2526 28.6027 86.7946 29.234 87.4794 29.7573L85.4398 32.7444C85.1832 33.1138 85.1546 33.6066 85.3398 34.007C85.5394 34.4226 85.9104 34.6688 86.3384 34.6688H86.9232C86.3764 35.0673 85.9343 35.5365 85.6223 36.0894L85.5822 36.1624C85.2115 36.8243 85.026 37.5174 85.026 38.2254C85.026 39.5259 85.5489 40.6038 86.5808 41.4147L86.6377 41.4587C87.6936 42.2747 89.1767 42.6904 91.045 42.6904C92.343 42.6904 93.584 42.4595 94.7109 42.0129C95.8192 41.5794 96.7255 40.9421 97.4041 40.1158L97.4631 40.0426C98.1621 39.18 98.519 38.133 98.519 36.9322C98.519 35.6696 98.091 34.7765 97.0927 33.9146C96.2368 33.1909 94.8961 32.8061 93.2272 32.8061H87.5222C87.5138 32.8053 87.5059 32.8018 87.4995 32.796L87.4936 32.7905L87.4909 32.7842C87.488 32.7743 87.4833 32.7555 87.4936 32.7444L88.977 30.5889C89.3283 30.7657 89.6967 30.8998 90.0753 30.989C90.4174 31.0661 90.8026 31.097 91.2306 31.097C92.4285 31.097 93.5126 30.8352 94.454 30.3118C95.3954 29.7882 96.1513 29.0801 96.6934 28.1714C97.2352 27.2786 97.5062 26.2778 97.5062 25.2155C97.5062 24.0762 96.993 21.9975 95.5951 20.9353C95.5951 20.9257 95.6001 20.9222 95.6042 20.9206L95.6093 20.9197L98.6758 21.2892V19.765H93.7692C92.9992 19.5032 92.2002 19.3494 91.3733 19.3494ZM93.0847 28.9877C92.5427 29.2954 91.9581 29.4649 91.3733 29.4649C90.4177 29.4649 89.576 29.0954 88.8629 28.3717C88.1498 27.6481 87.7932 26.5858 87.7932 25.2308C87.7932 23.8758 88.1498 22.8133 88.8629 22.0899C89.576 21.3666 90.4174 20.9968 91.3733 20.9968C91.9472 20.9968 92.4952 21.1382 93.0169 21.4344L93.0847 21.4739C93.6268 21.7819 94.0689 22.2594 94.4254 22.8907C94.7675 23.522 94.9533 24.3071 94.9533 25.2308C94.9533 26.1701 94.782 26.9553 94.4254 27.571C94.0833 28.2023 93.6268 28.6797 93.0847 28.9877ZM89.2195 34.6532H93.0847C94.1544 34.6532 94.8392 34.8842 95.2955 35.3769C95.7517 35.8697 95.98 36.5315 95.98 37.3014C95.98 38.4254 95.5665 39.3495 94.7392 40.0419C93.912 40.735 92.7995 41.0889 91.4302 41.0889C90.2319 41.0889 89.2336 40.7965 88.5061 40.2423C87.7785 39.6881 87.4081 38.8408 87.4081 37.7632C87.4081 37.0858 87.5791 36.4545 87.9215 35.9002C88.2636 35.346 88.6774 34.9456 89.2192 34.6532" fill="#808080"/>
</g>
<defs>
<clipPath id="clip0_24_18">
<rect width="151" height="43" fill="white"/>
</clipPath>
</defs>
</svg>
