<svg width="111" height="59" viewBox="0 0 111 59" fill="none" xmlns="http://www.w3.org/2000/svg">
<g clip-path="url(#clip0_24_22)">
<path d="M54.8735 58.1777C54.4978 58.1777 54.147 58.0918 53.8212 57.9415L50.4888 56.245C49.9876 56.0087 50.2382 55.9228 50.3887 55.8799C51.0651 55.6866 51.1904 55.6435 51.8919 55.3001C51.9672 55.257 52.0675 55.2786 52.1425 55.3215L54.6984 56.6315C54.7985 56.6744 54.9238 56.6744 54.9988 56.6315L64.9964 51.6706C65.0966 51.6277 65.1469 51.5417 65.1469 51.4344V41.5342C65.1469 41.4266 65.0966 41.3409 64.9964 41.2978L54.9988 36.3585C54.8987 36.3154 54.7734 36.3154 54.6984 36.3585L44.7008 41.2978C44.6006 41.3408 44.5503 41.4482 44.5503 41.534V51.4343C44.5503 51.5203 44.6006 51.6275 44.7008 51.6706L47.432 53.0235C48.9103 53.6678 49.8373 52.9161 49.8373 52.1645V42.393C49.8373 42.2643 49.9627 42.1353 50.138 42.1353H51.4158C51.5663 42.1353 51.7165 42.2427 51.7165 42.393V52.1645C51.7165 53.861 50.6391 54.849 48.7599 54.849C48.1836 54.849 47.7327 54.849 46.4547 54.312L43.8238 53.0235C43.1724 52.7015 42.7715 52.1 42.7715 51.4558V41.5556C42.7715 40.9113 43.1724 40.3099 43.8238 39.9878L53.8212 35.0269C54.4477 34.7263 55.2998 34.7263 55.9261 35.0269L65.9235 39.9878C66.5749 40.3099 66.976 40.9113 66.976 41.5556V51.4558C66.976 52.1 66.5749 52.7015 65.9235 53.0235L55.9261 57.9844C55.6002 58.1134 55.2243 58.1777 54.8735 58.1777ZM57.9557 51.37C53.571 51.37 52.6689 49.6519 52.6689 48.1916C52.6689 48.0626 52.7942 47.9339 52.9696 47.9339H54.2726C54.4228 47.9339 54.5481 48.0197 54.5481 48.1487C54.7487 49.2868 55.3249 49.8452 57.9809 49.8452C60.0855 49.8452 60.9879 49.4371 60.9879 48.4707C60.9879 47.9123 60.737 47.5044 57.4547 47.2252C54.7235 46.9888 53.0197 46.4735 53.0197 44.6052C53.0197 42.8656 54.7237 41.8347 57.58 41.8347C60.7871 41.8347 62.3658 42.7797 62.5664 44.8412C62.5664 44.9057 62.5413 44.9702 62.4911 45.0346C62.4408 45.0775 62.3658 45.1204 62.2906 45.1204H60.9876C60.8623 45.1204 60.737 45.0346 60.7121 44.9272C60.4114 43.7461 59.6346 43.3595 57.58 43.3595C55.2748 43.3595 54.9991 44.0468 54.9991 44.5621C54.9991 45.1849 55.3249 45.3782 58.4318 45.7217C61.5138 46.0655 62.9672 46.5594 62.9672 48.4062C62.9421 50.2961 61.1381 51.37 57.9557 51.37Z" fill="#808080"/>
<path d="M23.8537 19.4571C23.8537 19.0706 23.6031 18.7052 23.2023 18.512L12.5783 13.272C12.4027 13.186 12.2024 13.143 12.0021 13.1215H11.9017C11.7014 13.1215 11.5009 13.186 11.3255 13.272L0.701554 18.512C0.30048 18.7052 0.0500793 19.0704 0.0500793 19.4571L0.0752278 33.545C0.0752278 33.7383 0.200536 33.9315 0.400857 34.0176C0.601394 34.125 0.851795 34.125 1.0274 34.0176L7.34161 30.925C7.74247 30.7318 7.99309 30.3666 7.99309 29.9802V23.3871C7.99309 23.0006 8.24349 22.6354 8.64456 22.4422L11.3255 21.1106C11.526 21.0032 11.7515 20.9601 11.9769 20.9601C12.2024 20.9601 12.4279 21.0032 12.6035 21.1106L15.2844 22.4422C15.6855 22.6354 15.9359 23.0004 15.9359 23.3871V29.9802C15.9359 30.3666 16.1865 30.7318 16.5874 30.925L22.9016 34.0176C22.9991 34.0702 23.112 34.0981 23.2273 34.0981C23.3426 34.0981 23.4555 34.0702 23.553 34.0176C23.7536 33.9315 23.8789 33.7383 23.8789 33.545L23.8537 19.4571ZM74.9188 0.0644328C74.7184 -0.0215997 74.4678 -0.0215997 74.2922 0.0644328C74.0919 0.171834 73.9666 0.343528 73.9666 0.536776V14.4962C73.9666 14.6249 73.8916 14.7537 73.7411 14.8397C73.5908 14.904 73.4405 14.904 73.2902 14.8397L70.6342 13.5297C70.4395 13.4348 70.2192 13.3848 69.9952 13.3848C69.7711 13.3848 69.5509 13.4348 69.3562 13.5297L58.7323 18.7913C58.3314 18.9845 58.0808 19.3497 58.0808 19.7362V30.2377C58.0808 30.6242 58.3314 30.9895 58.7323 31.1827L69.3562 36.4443C69.5509 36.5393 69.7711 36.5892 69.9952 36.5892C70.2192 36.5892 70.4395 36.5393 70.6342 36.4443L81.2581 31.1827C81.659 30.9895 81.9096 30.6244 81.9096 30.2377V4.05891C81.9096 3.65086 81.659 3.28591 81.2581 3.09248L74.9188 0.0644328ZM73.9417 26.7802C73.9417 26.8876 73.8916 26.9735 73.7912 27.0164L70.1581 28.8203C70.1074 28.8416 70.0517 28.8526 69.9952 28.8526C69.9387 28.8526 69.883 28.8416 69.8323 28.8203L66.1992 27.0164C66.0988 26.9735 66.0487 26.8661 66.0487 26.7802V23.1722C66.0487 23.0648 66.0988 22.979 66.1992 22.9361L69.8323 21.132C69.883 21.1107 69.9387 21.0997 69.9952 21.0997C70.0517 21.0997 70.1074 21.1107 70.1581 21.132L73.7912 22.9361C73.8916 22.9788 73.9417 23.0864 73.9417 23.1722V26.7802ZM110.273 23.0864C110.674 22.8932 110.9 22.528 110.9 22.1413V19.5858C110.9 19.1993 110.649 18.8342 110.273 18.641L99.7247 13.401C99.5299 13.306 99.3097 13.2561 99.0857 13.2561C98.8616 13.2561 98.6414 13.306 98.4467 13.401L87.8227 18.6623C87.4217 18.8556 87.1713 19.2207 87.1713 19.6072V30.1089C87.1713 30.4954 87.4219 30.8605 87.8227 31.0538L98.3714 36.2079C98.7725 36.4012 99.2486 36.4012 99.6245 36.2079L106.014 33.1587C106.214 33.0727 106.34 32.8794 106.34 32.6862C106.34 32.4929 106.214 32.2997 106.014 32.2137L95.3397 26.9521C95.1392 26.8447 95.0139 26.673 95.0139 26.4798V23.194C95.0139 23.0007 95.1392 22.8075 95.3397 22.7215L98.6721 21.0893C98.7697 21.0366 98.8826 21.0087 98.9979 21.0087C99.1131 21.0087 99.226 21.0366 99.3236 21.0893L102.656 22.7215C102.857 22.8289 102.982 23.0006 102.982 23.194V25.7711C102.982 25.9643 103.107 26.1576 103.308 26.2434C103.405 26.296 103.518 26.324 103.633 26.324C103.749 26.324 103.862 26.296 103.959 26.2434L110.273 23.0864Z" fill="#808080"/>
<path d="M98.9227 22.5924C98.9599 22.5714 99.0035 22.5602 99.048 22.5602C99.0926 22.5602 99.1362 22.5714 99.1734 22.5924L101.203 23.6017C101.278 23.6448 101.328 23.7091 101.328 23.795V25.8139C101.328 25.8997 101.278 25.9642 101.203 26.0071L99.1734 27.0165C99.1362 27.0375 99.0926 27.0487 99.048 27.0487C99.0035 27.0487 98.9599 27.0375 98.9227 27.0165L96.8933 26.0071C96.8181 25.9642 96.768 25.8997 96.768 25.8139V23.7952C96.768 23.7091 96.8179 23.6446 96.8933 23.6019L98.9227 22.5924Z" fill="#808080"/>
<g clip-path="url(#clip1_24_22)">
<path d="M41.8416 14.122C41.6475 14.122 41.4569 14.1652 41.2886 14.2473L31.4214 19.1142L34.8728 24.4918L41.9592 14.1309C41.9204 14.1267 41.8814 14.1237 41.8424 14.122H41.8416ZM42.3008 14.2239V14.2242L49.2789 24.4251L52.5594 19.2976C52.4982 19.245 52.4297 19.1988 52.3556 19.16L47.2706 16.6519L42.3771 14.2489H42.3758C42.352 14.2387 42.3258 14.2323 42.3008 14.2237V14.2239ZM42.0978 14.2656L34.9848 24.6662L42.0393 35.6587C42.0591 35.6554 42.0785 35.6548 42.0982 35.6503L49.1673 24.5995L42.0978 14.2656ZM31.2511 19.2035C30.9533 19.3771 30.7852 19.6669 30.7852 19.9772V29.8247C30.7852 29.9813 30.8355 30.1342 30.9208 30.2701L34.7554 24.6637L31.2511 19.2035ZM52.6968 19.4392L49.3969 24.597L52.8984 29.7159V19.9771C52.8984 19.7834 52.8227 19.5958 52.6968 19.4392ZM49.2857 24.7718L42.3841 35.5595L42.395 35.5548L52.3569 30.6405L52.3577 30.6402C52.6357 30.5067 52.8138 30.2773 52.874 30.0183L49.2857 24.7718ZM34.8675 24.8381L31.0447 30.428C31.1252 30.5122 31.2202 30.5856 31.3282 30.6412L31.3284 30.6419L41.1831 35.5028L41.2882 35.5541L41.2894 35.5545H41.2898C41.3408 35.5799 41.3945 35.5993 41.448 35.6171C41.4766 35.6263 41.5052 35.6345 41.5339 35.6417C41.5587 35.6479 41.5836 35.6522 41.6084 35.6567C41.6563 35.6653 41.7043 35.6714 41.7526 35.6749C41.776 35.6766 41.7996 35.6766 41.823 35.6766L34.8675 24.8381Z" fill="#808080"/>
</g>
</g>
<defs>
<clipPath id="clip0_24_22">
<rect width="111" height="58.3461" fill="white"/>
</clipPath>
<clipPath id="clip1_24_22">
<rect width="23.8477" height="21.5546" fill="white" transform="translate(29.0508 14.122)"/>
</clipPath>
</defs>
</svg>
