<svg width="40" height="38" viewBox="0 0 40 38" fill="none" xmlns="http://www.w3.org/2000/svg">
<path d="M20 3.12924C17.8113 3.12924 15.644 3.53394 13.622 4.32024C11.5999 5.10654 9.76254 6.25904 8.2149 7.71193C5.08929 10.6462 3.33334 14.6259 3.33334 18.7755C3.33334 25.6911 8.11668 31.5585 14.7333 33.6394C15.5667 33.7646 15.8333 33.2796 15.8333 32.8571V30.2129C11.2167 31.1517 10.2333 28.1163 10.2333 28.1163C9.46668 26.3014 8.38334 25.8163 8.38334 25.8163C6.86668 24.8463 8.50001 24.8775 8.50001 24.8775C10.1667 24.9871 11.05 26.4891 11.05 26.4891C12.5 28.8673 14.95 28.1633 15.9 27.7877C16.05 26.7707 16.4833 26.0823 16.95 25.6911C13.25 25.3 9.36668 23.9544 9.36668 17.9932C9.36668 16.2565 10 14.8639 11.0833 13.7531C10.9167 13.3619 10.3333 11.7347 11.25 9.62244C11.25 9.62244 12.65 9.19999 15.8333 11.2184C17.15 10.8741 18.5833 10.702 20 10.702C21.4167 10.702 22.85 10.8741 24.1667 11.2184C27.35 9.19999 28.75 9.62244 28.75 9.62244C29.6667 11.7347 29.0833 13.3619 28.9167 13.7531C30 14.8639 30.6333 16.2565 30.6333 17.9932C30.6333 23.9701 26.7333 25.2843 23.0167 25.6755C23.6167 26.1605 24.1667 27.115 24.1667 28.5701V32.8571C24.1667 33.2796 24.4333 33.7803 25.2833 33.6394C31.9 31.5428 36.6667 25.6911 36.6667 18.7755C36.6667 16.7208 36.2356 14.6862 35.398 12.7879C34.5604 10.8896 33.3328 9.16481 31.7851 7.71193C30.2375 6.25904 28.4002 5.10654 26.3781 4.32024C24.356 3.53394 22.1887 3.12924 20 3.12924Z" fill="black"/>
</svg>
