<svg width="45" height="45" viewBox="0 0 45 45" fill="none" xmlns="http://www.w3.org/2000/svg">
<path d="M45 34.8525C44.345 35.0998 43.6223 35.099 42.9678 34.8504C42.3133 34.6017 41.7724 34.1223 41.4469 33.5025L34.9781 24.5569L34.0406 23.3062L26.535 33.5137C26.2294 34.1078 25.7178 34.5703 25.096 34.8146C24.4741 35.0589 23.7846 35.0684 23.1563 34.8412L32.8275 21.8662L23.8313 10.1456C24.4781 9.9125 25.1856 9.90941 25.8344 10.1369C26.4833 10.3643 27.034 10.8084 27.3938 11.3944L34.0988 20.4506L40.8413 11.4319C41.1493 10.8483 41.661 10.3983 42.2791 10.1674C42.8972 9.93649 43.5786 9.94074 44.1938 10.1794L40.7025 14.8125L35.9738 20.9681C35.8424 21.0853 35.7374 21.2288 35.6654 21.3894C35.5935 21.55 35.5563 21.724 35.5563 21.9C35.5563 22.076 35.5935 22.25 35.6654 22.4105C35.7374 22.5711 35.8424 22.7147 35.9738 22.8319L44.9813 34.8544L45 34.8525ZM0.00377457 21.705L0.791274 17.8144C2.95502 10.1212 11.775 6.92061 17.8425 11.6831C21.3956 14.475 22.2825 18.4275 22.1081 22.8825H2.09252C1.76815 30.8381 7.5094 35.6419 14.85 33.1875C16.0398 32.7589 17.1048 32.0419 17.9497 31.1009C18.7945 30.1598 19.3929 29.024 19.6913 27.795C20.0794 26.5462 20.7188 26.3325 21.8925 26.6925C21.6965 28.2156 21.1579 29.6745 20.3171 30.9595C19.4764 32.2445 18.3553 33.3223 17.0381 34.1119C14.8622 35.3027 12.3653 35.7748 9.90483 35.4606C7.44431 35.1464 5.14623 34.062 3.3394 32.3625C1.55317 30.351 0.473344 27.8107 0.2644 25.1287C0.2644 24.6881 0.1144 24.2756 0.0131496 23.88C0.00400431 23.1556 -0.000370785 22.4313 2.45747e-05 21.7069L0.00377457 21.705ZM2.1169 21.1687H20.2181C20.1056 15.4012 16.4663 11.31 11.6119 11.2725C6.20815 11.1975 2.3419 15.1987 2.10377 21.1425L2.1169 21.1687Z" fill="#808080"/>
</svg>
