<svg width="55" height="55" viewBox="0 0 55 55" fill="none" xmlns="http://www.w3.org/2000/svg">
<path d="M15.4688 23.5469C17.0729 17.1302 21.0833 13.9219 27.5 13.9219C37.125 13.9219 38.3281 21.1406 43.1406 22.3437C46.349 23.1458 49.1563 21.9427 51.5625 18.7344C49.9583 25.151 45.9479 28.3594 39.5312 28.3594C29.9063 28.3594 28.7031 21.1406 23.8906 19.9375C20.6823 19.1354 17.875 20.3385 15.4688 23.5469ZM3.4375 37.9844C5.04167 31.5677 9.05208 28.3594 15.4688 28.3594C25.0937 28.3594 26.2969 35.5781 31.1094 36.7812C34.3177 37.5833 37.125 36.3802 39.5312 33.1719C37.9271 39.5885 33.9167 42.7969 27.5 42.7969C17.875 42.7969 16.6719 35.5781 11.8594 34.375C8.65104 33.5729 5.84375 34.776 3.4375 37.9844Z" fill="#808080"/>
</svg>
